<svg id="Layer_1" data-name="Layer 1" xmlns="http://www.w3.org/2000/svg" viewBox="0 0 174.26 121.01"><defs><style>.cls-1{fill:#fefefe;}.cls-2{fill:#243a63;}.cls-3{fill:#8e836d;}.cls-4{fill:#f1d054;}.cls-5{fill:#f2df91;}.cls-6{fill:#616161;}</style></defs><path class="cls-1" d="M201.11,100.28l0,0a.36.36,0,0,0-.38-.38l0,0c0-.38-.26-.52-.61-.5h0a.61.61,0,0,0-.7-.7h0c0-.35-.12-.58-.5-.6l0,0a.73.73,0,0,0-.74-.75l.06,0c-2.18-1.17-3.12-.67-3.12,1.65,0,1.23,0,2.46,0,3.7s-.61.84-1.22.49v0a1.43,1.43,0,0,0-.71-1.39v0a1.38,1.38,0,0,0-.69-1.39v0a4.8,4.8,0,0,0-1-2.42c-.64-1.11-1.36-1-1.94.11-.24.47-.46.95-.7,1.42l-2.58,5c-.55-.88-.23-1.51-.42-2-.44-1.28.57-2.68-.4-3.88v0a.46.46,0,0,0-.31-.57l0,0-.37-.37,0,0a1.1,1.1,0,0,0-1.24-.76c-3,.13-6.06-.56-9,.71a1,1,0,0,0-.06-.33l-.38-.29c-1-.67-2,.15-3.08,0-2.39-.44-2.81-.12-2.72,2.17.06,1.52-.51,2-1.92,1.83a3.36,3.36,0,0,0-1.05,0c-1.67.27-2.12-.49-2-2.07.09-2-.44-2.34-2.6-1.9-.53-.25-.66.57-1.38.34a13.49,13.49,0,0,0-9.59.11c-.22.1-.45.23-.64,0-1.51-1.67-3.48-.19-5.17-.76-.64-.21-1.3.42-1.81.94-.69.73-1.45,1.39-2.11,2.14s-1,.61-1.56,0a34.69,34.69,0,0,0-2.51-2.49,2.71,2.71,0,0,0-2.82-.48c-1.11.37-.71,1.36-.72,2.12,0,2.59,0,5.18,0,7.77,0,1.31.62,1.57,1.75,1.57S136,108,136,106.76c-.07-1.06,0-2.12,0-3.18s.49-.9,1.12-.52a.73.73,0,0,0,.71.7.74.74,0,0,0,.71.71c.57,1,1.16.72,1.83.08a9.88,9.88,0,0,1,2.48-2.16c0,1.59.06,2.93,0,4.27s.51,1.85,1.77,1.68c1.65-.22,3.49.63,4.95-.85.07-.07.42.13.64.21.25.39.68.3,1.05.38a19.32,19.32,0,0,0,7.19,0,.72.72,0,0,0,.66-.4,1.51,1.51,0,0,1,1.18,0c2.41,1.27,3.23.82,3.22-1.85,0-1.3.44-1.86,1.74-1.73a7,7,0,0,0,1.59,0c1.34-.17,1.7.41,1.68,1.7-.06,2.58,0,2.58,2.64,2.48.7,0,1.41,0,2.11,0s1.22.18,1.47-.6c1.2-.15,2.12.79,3.37.73,2.77-.15,5.56,0,8.34-.07.71,0,1.58.06,1.74-1h0c1.52,0,3.43-.53,4.48.19,1.43,1,2.74.68,4.12.83,1.19.12,1.75-.38,1.68-1.62s0-2.23,0-3.35c0-.79.35-1,1-1h0c0,.58,0,1.12.85.93l-.09.13.08-.13c-.1.58.14.81.72.71h0c-.1.8.25,1.16,1.07,1.05h0c-.12.59.12.83.71.71h0c-.11.59.13.82.71.72h0c-.11.59.13.82.71.72h0c-.13,1,.69,1.13,1.33,1.13s1.61.51,1.77-.74l0-.14a29,29,0,0,0,0-9.44l-.09-.45c-.5-.92-1.35-.56-2-.42-.86.2-.52,1-.54,1.64-.05,1,0,2,0,3,0,.59.06,1.19-.7,1.4h0c0-.39-.28-.49-.62-.47h0a.62.62,0,0,0-.71-.71h0c0-.35-.12-.58-.5-.6l0,0a.74.74,0,0,0-.74-.74l0,0A.35.35,0,0,0,201.11,100.28Zm-21.5-44.14c.07-.57-.35-.81-.72-1.08a3.32,3.32,0,0,0-1.37-1.57c-.53-.67-.71-1.12.4-1.48a1.93,1.93,0,0,1,2.38.42,1.34,1.34,0,0,0,1.23.86l.18.55.23,1.35a1.27,1.27,0,0,0,1.44,1.38,1.39,1.39,0,0,0,1.44-1.06c.17-.79.09-1.54-1-1.68l-1.43-.39-.57-.46c-.18-.53-.69-1-.49-1.6A10,10,0,0,1,189.62,56c1.4,2,2.76,3,5.12,2.21,0,.7.14,1.41.14,2.11,0,5.71,0,11.43,0,17.15a3.68,3.68,0,0,0,1.2,2.94c3.92,3.84,7.77,7.74,11.66,11.6.77.76,1.54,1.47,1.34,2.7-.06.34,0,.78.43.85s.75-.29.82-.74a3,3,0,0,0-.94-2.85c-4-3.91-7.92-7.92-11.93-11.83a3.9,3.9,0,0,1-1.26-3.1c0-6.25,0-12.5,0-18.74a14.45,14.45,0,0,1,3.58.56c0,2.77.06,5.53.07,8.3,0,3.58,0,3.62,3.53,3.69,1,0,1.57.27,1.45,1.39-.06.52,0,1.06,0,1.59-.19,1.86.6,3.85-.95,5.55-.45.49-.11,1.39.57,1.83a1.47,1.47,0,0,0,2.07-.26,1.29,1.29,0,0,0,0-1.91,2.27,2.27,0,0,1-.75-2.19c0-1.12,0-2.24,0-3.36,0-3.48,0-3.52-3.52-3.6-1.06,0-1.47-.31-1.44-1.41.06-2.41,0-4.83,0-7.24,0-.68,0-1.32.79-1.58a2.46,2.46,0,0,1,1.5,2.86,1.64,1.64,0,0,0,.63,1.73c2.8,2,3.86,5,5.16,8-.49,3-.09,6-.21,9a2.33,2.33,0,0,1-.69,2.05,1.34,1.34,0,0,0,.16,2.15,1.65,1.65,0,0,0,2.26,0,1.32,1.32,0,0,0,.09-2,2.6,2.6,0,0,1-.83-1.86c0-2.41,0-4.83,0-7.24,0-.57-.13-1.24.74-1.33a18,18,0,0,1,2.64,3.56c-.35,3.16-.08,6.34-.19,9.5,0,.63.14,1.31-.41,1.83a1.63,1.63,0,0,0,2.14,2.47c.92-.73.41-1.48.09-2.34a7,7,0,0,1,.07-5.78,4.65,4.65,0,0,0,2,5A2.93,2.93,0,0,1,218,90c-.06.81,0,1.63,0,2.44-.66.55-.31,1.29-.37,2s0,1.22.83,1.2.75-.66.82-1.24c.12-1-.44-2.2.45-3.14a8.29,8.29,0,0,1,.92,3.2c0,1.13.64,1.16,1.49,1.17,1.13,0,1-.72,1-1.43a6.73,6.73,0,0,0-.41-2.42,19.25,19.25,0,0,0-4.29-6.6,2.5,2.5,0,0,1-1-1.77c-.11-5.68-2.68-10.25-6.52-14.22a4.94,4.94,0,0,1-1.4-2.57,12.87,12.87,0,0,0-2.14-5.17c-3.19-4.27-7.75-5.75-12.79-6a4.07,4.07,0,0,1-3.27-1.63,12.49,12.49,0,0,0-13-4.62c-3.76.78-6.64,3.19-9.73,5.22a47.28,47.28,0,0,0-6.59-4.13,12.58,12.58,0,0,0-15.56,3.2,5.26,5.26,0,0,1-4.29,2.06c-7,.45-13.05,4-14.28,11.55a3.78,3.78,0,0,1-1.3,2c-3.53,3.67-6,7.9-6.45,13.06a5.6,5.6,0,0,1-1.57,3.55c-2.26,2.47-4,5.22-4.29,8.71,0,.76.06,1.3,1,1.21.67-.06,1.44.22,1.47-1a9.54,9.54,0,0,1,2.91-6.48,10.44,10.44,0,0,0,3.12-7.09c.27-3.63,1.77-7,5.39-8.56a20.31,20.31,0,0,1,9.69-1.62c3.86.29,6,2.45,6.24,6.31a25.1,25.1,0,0,1-.14,3.35c-.25,3.17,1.27,5.51,4.17,6.36A11.63,11.63,0,0,0,160.54,82c.38-.66.75-1.32.18-2.1-.69.39-.87,1-1.19,1.6a8.54,8.54,0,0,1-5.85,4.19,16,16,0,0,1-4.93.13c-2.37-.23-3.16-.94-3.5-3.33a47.25,47.25,0,0,1,0-5.83,6.42,6.42,0,0,0-4.52-6.13,18.71,18.71,0,0,0-8.22-.44,1.31,1.31,0,0,0-1.76.37c-1,.07-1.43-.16-.93-1.3a9.63,9.63,0,0,0,.75-2.89,7.33,7.33,0,0,1,2.59-4.87c3-2.85,6.69-3.61,10.67-3a2.39,2.39,0,0,0,2.85-1.26,11.27,11.27,0,0,1,6.6-5.3c3.94-1.16,7.23.39,10.47,2.45,1.91,1.22,3.09,2.62,2.62,5-.19,1,.46,2.46-.3,3s-1.71-.63-2.62-1a7.26,7.26,0,0,0-8.23,1.81c-1.68,1.9-1.7,4.45-.06,7.41.18.31.36.61.55.91a5.86,5.86,0,0,1-.53,7.33,17.42,17.42,0,0,1-2,1.76c-.37.32-.79.72-.42,1.17s.75,0,1.07-.24c4.14-2.6,5.1-7,2.39-11-1.43-2.09-1.51-5.24-.17-6.81s4.61-2.22,6.92-1.35a5.08,5.08,0,0,1,3.59,5.09c0,8.79,0,17.57,0,26.36,0,1.57.38,2.2,2,1.81l1.79,0c.81-.18.69-.84.7-1.41,0-1.47,0-2.95,0-4.42Q171,73,171,56.27l1.22-.77,3.53,3.29a6.29,6.29,0,0,0,2.16,2l.4.38a.85.85,0,0,0,.06.17c1.37,2,4,3.14,4.46,5.92.12.71,1.08.87,1.81.59a1.49,1.49,0,0,0,1-1.51c0-.8-.53-1.38-1.16-1.32-1.78.15-2.33-1.2-3.19-2.26-.61-.74-1.08-1.69-2.18-1.89l-1.24-1.24-.88-.88-1.25-1.25-1.94-1.92c-.49-.61-.77-1.23.12-1.72s1.92-1.27,2.85.05l2.07,2.11c.24.25.46.51.72.75s.61.36.74.07C180.48,56.36,180.07,56.18,179.61,56.14Zm25.48,54.45a4.56,4.56,0,0,0-2.11,0c-.47,0-.52.37-.59.73-.2,1,.59,2.51-.52,3s-2.3.1-3.47.16c-.86.05-1.07-.33-1.11-1.14-.15-3-.18-3-3.35-2.77a3.05,3.05,0,0,1-.52,0c-3.42-.07-6.84-.2-10.25.07-.71,1.35-1.45-.11-2.17,0a42.65,42.65,0,0,0-7.41-.05c-1.38.88-2.72,1.4-4.12,0-.25-.25-.9-.14-1.36-.15-1.17,0-2.35,0-3.52,0-1.44,0-3-.29-4.06,1.07-.3.37-.61.18-.89-.09s-.71-.79-1.32-.74a68.78,68.78,0,0,0-8.85-.08,1.24,1.24,0,0,1-2.2.12c-.11-.13-.42-.08-.64-.11l-8.49,0c-.94,1.25-1.89-.07-2.83,0h-6.75a2,2,0,0,0-1.92,1c-.34.49-.61.45-.92,0a3.35,3.35,0,0,0-3.15-1.17c-2.52.06-5,.08-7.57.14-3.24.07-3.24.08-3.24,3.38,0,4.81,0,4.81-4.8,4.74a4,4,0,0,1-.27-2c-.1-1.91.21-3.82-.17-5.72-1.08-1.13-2.34-.12-3.49-.29-3.42-.23-6.84-.13-10.26,0-1.15.23-2.42-.79-3.5.32a.64.64,0,0,0-.16.75l-.26,4.5c-.76-.07-1-.59-1.38-.94-1.39-1.36-2.77-2.73-4.13-4.13a2.8,2.8,0,0,0-3-.53c-1,.28-.58,1.29-.59,2,0,2.66,0,5.31,0,8,0,1.19.63,1.31,1.58,1.31s1.64-.09,1.57-1.31,0-2.35,0-3.53c0-.28-.11-.64.21-.81s.64.15.87.38c1.47,1.46,3,2.89,4.38,4.39a2.74,2.74,0,0,0,2.2.88c3.48,0,7,0,10.43,0,.89,0,2.06.56,2.6-.82.09-.23.39-.09.62,0a13.28,13.28,0,0,0,10,.06c.38-.14.44-.07.63.22.68,1,1.74.65,2.56.42s.49-1.21.51-1.86c.06-1.27,0-2.55,0-3.82l.56-.37c1.58,1.71,3.15,3.43,4.74,5.13.52.56,1,1.16,1.93,1.06,3.89-.41,7.88.83,11.71-.68.25-.09.38.06.58.17,2.26,1.18,3.23.7,3.1-1.68-.08-1.61.49-2,2-1.95,2,0,4.25.67,6.25-1.31,0,1.56.05,2.78,0,4s.52,1.49,1.6,1.49,1.75-.17,1.69-1.42c0-.89,0-1.77,0-2.66,0-.5-.27-1.2.26-1.46s.89.43,1.24.77c1.32,1.27,2.61,2.57,3.89,3.87a2.38,2.38,0,0,0,1.84.88q4.77,0,9.56,0c1.14,0,1.72-1.15,2.54-1.3s1.42,1.37,2.68,1.31c2.06-.09,4.13,0,6.2,0a2.36,2.36,0,0,0,2.51-1.83,5.76,5.76,0,0,0-.29-4.14c-.3-.53-.48-.8,0-1.45,1.07-1.33,2.39-.65,3.59-.73.77-.06.68.67.68,1.18,0,1.77.05,3.54,0,5.31,0,1.17.29,1.72,1.59,1.71s1.7-.4,1.64-1.65c-.08-1.7,0-3.42,0-5.13-.05-1.18.42-1.6,1.55-1.49a6,6,0,0,0,1.41,0c.94-.13,1.24.26,1.22,1.17,0,1.89,0,3.78,0,5.66,0,1.29.64,1.43,1.66,1.42s1.62-.21,1.52-1.37c0-.53,0-1.06,0-1.59-.06-.81.23-1.22,1.1-1.16.53,0,1.06,0,1.6,0,2.54,0,2.44-.23,2.35,2.39,0,1.32.44,1.75,1.75,1.73,3.66-.07,7.31-.06,11,0,1.16,0,1.72-.25,1.72-1.56s-.48-1.64-1.68-1.6c-2,.08-4,0-6,0-.35,0-.77,0-.7-.54,0-.36.38-.4.68-.41,1.41,0,2.83-.05,4.25,0,1.07,0,1.5-.41,1.45-1.47s-.16-1.76-1.42-1.73-2.6,0-3.9,0c-.33,0-.79,0-.77-.47s.48-.45.8-.44c3.83.08,7.66-.28,11.48.14,0,2.47.05,4.93.08,7.4.94,1.08,1.89,1,2.85,0a.29.29,0,0,0,0-.27,31.46,31.46,0,0,0,.13-6c0-1.55.95-1.35,1.88-1.31s2.12-.41,2,1.31,0,3.29,0,4.94c0,1.89.56,2.61,2.09,1.84s2.39-.28,3.56.1a1.08,1.08,0,0,0,.36,0c1.94,0,3.88,0,5.83,0a2.44,2.44,0,0,0,2.44-1.4l.46-.1a2.34,2.34,0,0,0,2.19,1.48c2.16,0,4.33.06,6.49,0,1.62-.06,2.4-1.1,2.25-2.73v-.72a1.22,1.22,0,0,0,0-1.62h0c.31-.79-1.12-1.2-.41-2.13a2.47,2.47,0,0,0-1.84-4.08c-1.4-.12-2.83,0-4.24,0s-3.11-.35-4.32,1c-.22.25-.45.15-.76,0a11.78,11.78,0,0,0-10.22-.15c-.27.12-.53.37-.66-.08-.32-1.09-1.21-.76-1.91-.76-4.42,0-8.83.06-13.24.09-3.43-.08-6.85-.18-10.27.06ZM182.38,59.51l.22,1.35c-.12,1.17.78,1.33,1.56,1.41a1.26,1.26,0,0,0,1.37-1.1c.16-.78.09-1.55-1-1.65l-1.41-.33c-.22-.38-.51-.67-.92-.34S182.14,59.33,182.38,59.51Zm25.32,70.85c-.67.48-.39,1.19-.39,1.79,0,4.59,0,9.18,0,13.77a4.15,4.15,0,0,1-.57,2.84,1.49,1.49,0,0,0,.4,2.06,1.47,1.47,0,0,0,2,0,1.38,1.38,0,0,0,.39-2,3.93,3.93,0,0,1-.51-2.53V127.43a3.59,3.59,0,0,0-.1-1.4c-.36-.77-.81-.78-1.09.11Zm4,22.63c.42.95-.41,1.27-.93,1.65a15.29,15.29,0,0,1-7.09,2.94,2.42,2.42,0,0,0-2,1.39,15.39,15.39,0,0,1-18.36,7c-4.11-1.33-7.33-4.18-11.06-6.14-1.14-.59-1.36-1.77-1.35-3q0-14.58,0-29.15c0-2.31,0-2.34-2.43-2-1.44-.31-1.92.18-1.91,1.73.08,9.67,0,19.34.08,29a4.07,4.07,0,0,1-2.39,4.13,41.31,41.31,0,0,0-4.83,2.92,24.87,24.87,0,0,1-5.58,2.66,15.45,15.45,0,0,1-17.43-5.65c-.63-.9-.63-1.39.49-1.81a21.44,21.44,0,0,0,2.85-1.39,38,38,0,0,0,11.14-9.71c.28-.36.75-.76.25-1.21s-.89,0-1.21.32-.87,1-1.29,1.46a29.78,29.78,0,0,1-11.9,8.94,6.34,6.34,0,0,1-3.43.57c-6.86-1.07-11.07-5.7-12-13.12-.17-1.43.13-2.11,1.62-2.48a62.77,62.77,0,0,0,14.75-5.91c2.34-1.27,4.64-2.55,6.24-4.82s3.59-2.54,5.93-1.13a9.89,9.89,0,0,1,2.75,2.72c.26.35.5,1,1.07.61s.25-.89,0-1.28c-1.4-2.35-3.31-4-6.19-4.07-1.19,0-1.83-.21-1.48-1.55.11-.39.21-.87-.41-1s-.79.27-.89.81a10.35,10.35,0,0,1-5.65,7.32,71,71,0,0,1-18.16,7.31,2.74,2.74,0,0,1-2.61-.61,9.82,9.82,0,0,1-3.51-7.8c0-1.13.25-1.57,1.52-1.35a27.43,27.43,0,0,0,12.59-1,11,11,0,0,0,1.64-.66.61.61,0,0,0,.4-.7c-.1-.36-.45-.38-.73-.33-.69.14-1.38.32-2.06.49a32.6,32.6,0,0,1-10.7.89,5.3,5.3,0,0,1-5-3.51c-.6-1.47-1.93-1-2.72-.75-1,.32,0,1.15.18,1.74a3.51,3.51,0,0,0,.72,1.41,7,7,0,0,1,1.44,4.54,11.36,11.36,0,0,0,5.41,9.62,2.34,2.34,0,0,1,1.11,2c.87,7.81,5.6,13.22,13.14,15a4.1,4.1,0,0,1,2.38,1.64c4.38,5.49,9.85,9,17.13,7.86,6.71-1.06,12.16-4.88,17.27-9.16,3.41,3.26,7.53,5.44,11.71,7.49a17.06,17.06,0,0,0,20.36-3.34c2.31-2.3,4.52-4.31,7.88-5.42,6.49-2.13,9.26-7.6,10.24-14A2.67,2.67,0,0,1,220,143a10.35,10.35,0,0,0,4.89-7.24c.5-3.12.88-6.24,2.84-8.89a1.32,1.32,0,0,0,.19-.49c.13-.5,0-.82-.59-.83-1.21,0-2.52-.35-2.94,1.42a3.77,3.77,0,0,1-1.08,1.58,4,4,0,0,0-1.08,3.38,10.32,10.32,0,0,1-2.22,7.44c-.66-.55-.42-1.31-.43-2,0-3.53,0-7.06,0-10.58,0-.4,0-1-.49-1s-.52.55-.51.94c.09,4.29-.2,8.58.15,12.86a1.61,1.61,0,0,1-1,1.65c-1.58.56-1.93,1.78-1.87,3.26-.73.51-.44,1.16-.26,1.8-.45,1.66-.41,3.53-2,4.7a2.48,2.48,0,0,1-.75-2.06c.06-1.65.1-3.3,0-4.95a3.52,3.52,0,0,1,1.33-3.25,3.19,3.19,0,0,0,1.46-2.51c0-3.77,0-7.55,0-11.32,0-.52,0-1.28-.63-1.29-.83,0-.64.82-.64,1.36q0,5.31,0,10.62c0,.71.11,1.53-.6,1.93-2.1,1.18-2,3.13-1.9,5.1,0,1.41,0,2.83,0,4.24a2.32,2.32,0,0,1-.64,1.89A1.22,1.22,0,0,0,211.69,153Zm-28.05-3.19a7.86,7.86,0,0,0-.81,1.61c-.14.77-.11,1.53.79,1.94a1.52,1.52,0,0,0,1.88-.52,1.2,1.2,0,0,0-.05-1.88c-.78-.72-.58-1.62-.59-2.48,0-3.06,0-6.13,0-9.2a2.83,2.83,0,0,0-.84-2.21c-3.4-3.44-6.74-6.92-10.11-10.39-.33-.33-.67-.67-1-1s-.81-.45-1.13-.13c-.47.45.12.71.36,1,1.09,1.23,2.17,2.49,3.35,3.64a4,4,0,0,1,1.29,3.13c0,5.9,0,11.8-.05,17.7a4.34,4.34,0,0,0,1.56,3.46c1.78,1.77,4.28,3,4.78,5.87a1.41,1.41,0,0,0,1.71.93c.69-.17,1.4-.57,1.43-1.38,0-.65-.3-1.42-1-1.49-1.61-.16-2.34-1.48-3.46-2.29-3.32-2.4-4.52-5.52-4-9.58a68.53,68.53,0,0,0,.06-8c4.67,3,5.18,4.74,2.87,9.31a1.32,1.32,0,0,0,.12,1.33C181.34,150.26,182.3,150.25,183.64,149.8ZM157.83,146a8.62,8.62,0,0,0-4.61-7.27c-3.17-1.71-5.92-.28-8.47,1.67a5.92,5.92,0,0,0-.82.66,8.05,8.05,0,0,1-3.32,2,36,36,0,0,1-9,1.68c-.53.05-1.2.1-1.21.76s.72.65,1.22.63c5.12-.26,10.08-.91,14.05-4.74,2.32-2.24,5.75-2.52,7.59-1a8.45,8.45,0,0,1,.6,12.93c-.7.71-1.53,1.3-2.28,2-.33.28-.63.62-.39,1.06s.75.28,1.11.17a3.42,3.42,0,0,0,1.08-.58C156.24,153.7,157.87,150.84,157.83,146Zm-11-52.41c-.58-.08-1.7-.16-2.79-.39-6.94-1.44-9.08-5.91-5.83-12.1.16-.31.47-.64.12-.93s-.77.06-1,.39c-2.6,3.71-3.23,7.94,1,11.27a13.36,13.36,0,0,0,9.8,2.75c1.77-.16,3.52-.4,5.29-.5s3.44-.22,4.79,1.15c.33.34.78.56,1.09.26.5-.49-.07-.87-.39-1.13A7.2,7.2,0,0,0,154.45,93C152.08,92.89,149.77,93.61,146.87,93.6Zm17.19,50.7a14.63,14.63,0,0,0-1.61-8.1,19,19,0,0,1-2.76-9.56c0-.46.09-1-.63-1s-.75.57-.75,1.11a16.73,16.73,0,0,0,2.57,9.41,8.68,8.68,0,0,1,1,2c1.48,4.52.87,9-.52,13.36-.2.62-.62,1.38.22,1.68s1-.62,1.26-1.17A19.32,19.32,0,0,0,164.06,144.3Zm27-78.67a1.43,1.43,0,0,0-1.23,2.15c.87,1.23.74,2.54.75,3.88,0,2.3,0,4.59,0,6.89s.52,4.37,2.51,6c2.75,2.3,5.24,4.91,7.82,7.4.42.4.94.75,1,1.42,0,.47,0,.94,0,1.41s.47,1.1.78.48a3.82,3.82,0,0,0,.13-2.9,3.93,3.93,0,0,0-1-1.19c-2.84-2.84-5.66-5.68-8.54-8.47a3.18,3.18,0,0,1-1.05-2.48c0-2.11-.08-4.22-.22-6.34s-.64-4.18.65-6.17C193.29,66.85,192.21,65.58,191.09,65.63Zm2.6,78.85c0-.47,0-.95,0-1.41.29-2.88-.65-5.84.67-8.67.33-.73-.39-1.27-1.05-1.62a1.42,1.42,0,0,0-1.91.33,1.23,1.23,0,0,0,.08,1.89c1.06.71.92,1.67.92,2.66v13.43c0,1,.14,1.92-.83,2.7-.57.47-.36,1.33.22,1.89a1.65,1.65,0,0,0,2.25.18,1.2,1.2,0,0,0,.34-1.85,4,4,0,0,1-.69-3C193.68,148.84,193.69,146.66,193.69,144.48Zm-9.42-65.2c0,1.77.06,3.53,0,5.3A4.18,4.18,0,0,0,185.64,88c1.88,1.86,3.69,3.79,5.45,5.77.71.79.73,2.42,2.52,1.59.38-.18,1.24.65,1.45-.21s-.62-1.32-1.29-1.4a4.42,4.42,0,0,1-3-2A51.71,51.71,0,0,0,187,87.63,4.68,4.68,0,0,1,185.54,84c.1-3.53,0-7.07,0-10.6,0-.51.1-1.25-.58-1.28-.87,0-.71.77-.72,1.32C184.25,75.39,184.27,77.34,184.27,79.28Zm2.78-2c0,1.65,0,3.3,0,4.95a2.88,2.88,0,0,0,.87,2.36c3.51,3.48,7,7,10.44,10.52.26.27.49.58.85.28a.72.72,0,0,0,.08-1,6.6,6.6,0,0,0-.92-1.06c-3-3-5.88-5.94-8.9-8.83A4.07,4.07,0,0,1,188,81.17c.1-3.06,0-6.12,0-9.18,0-.38.14-1-.42-1-.75-.07-.55.61-.56,1C187,73.76,187.05,75.53,187.05,77.29Zm12.35,59v-2.65c0-2.3,0-4.6,0-6.9,0-.38.07-.93-.54-.9s-.44.47-.45.82,0,.83,0,1.24v16.61a2.86,2.86,0,0,1-.77,2.55c-.68.61-.34,1.58.29,2.21a1.41,1.41,0,0,0,2.07,0,1.32,1.32,0,0,0,.11-2,3,3,0,0,1-.7-2.44C199.41,141.92,199.4,139.09,199.4,136.27Zm3.26.47v9c0,.8.11,1.57-.69,2.22a1.32,1.32,0,0,0,.1,2,1.61,1.61,0,0,0,2.25.08,1.19,1.19,0,0,0,.2-2,3.54,3.54,0,0,1-.86-2.92q0-9.11,0-18.21c0-.47.28-1.31-.36-1.35-.85-.05-.62.83-.62,1.36C202.65,130.26,202.66,133.5,202.66,136.74ZM179.74,95.33c0-.06,0-.14,0-.17a1.89,1.89,0,0,0-.46-.51,3.75,3.75,0,0,1-1.89-3.83c.12-3.47.06-6.95,0-10.42a4.21,4.21,0,0,1,1-3.42,1.29,1.29,0,0,0-.2-2,1.62,1.62,0,0,0-2.11,0c-.74.55-1,1.24-.37,2a3.93,3.93,0,0,1,.66,2.83c0,4.18,0,8.36,0,12.55A3.26,3.26,0,0,0,179.74,95.33Zm1.81-22.89a2.65,2.65,0,0,0-.49,2c0,4,.11,8-.06,12-.14,3,.09,5.71,2.85,7.57.32.22.47.67.74,1,.44.51.95.78,2,.09-1.14-1-2.07-1.88-3.08-2.67A4.11,4.11,0,0,1,182,88.75c.09-3.94,0-7.88,0-11.82C182,75.57,181.73,74.21,181.55,72.44Zm2.55,58.78c-1.33-1.2-1-2.95-1-4.62,0-.48,0-1-.67-1s-.61.6-.62,1.07c0,1.48.24,3-.94,4.3-.41.45.14,1.22.65,1.65a1.27,1.27,0,0,0,1.61.16A1.63,1.63,0,0,0,184.1,131.22Zm-55.83-5.52a20.69,20.69,0,0,0-5.39,0A5.4,5.4,0,0,0,128.27,125.7Z" transform="translate(-79.69 -48.82)"/><path class="cls-2" d="M168.54,160.37c-5.11,4.28-10.56,8.1-17.27,9.16-7.28,1.15-12.75-2.37-17.13-7.86a4.1,4.1,0,0,0-2.38-1.64c-7.54-1.77-12.27-7.18-13.14-15a2.34,2.34,0,0,0-1.11-2,11.36,11.36,0,0,1-5.41-9.62,7,7,0,0,0-1.44-4.54,3.51,3.51,0,0,1-.72-1.41c-.15-.59-1.14-1.42-.18-1.74.79-.25,2.12-.72,2.72.75a5.3,5.3,0,0,0,5,3.51,32.6,32.6,0,0,0,10.7-.89c.68-.17,1.37-.35,2.06-.49.28,0,.63,0,.73.33a.61.61,0,0,1-.4.7,11,11,0,0,1-1.64.66,27.43,27.43,0,0,1-12.59,1c-1.27-.22-1.53.22-1.52,1.35a9.82,9.82,0,0,0,3.51,7.8,2.74,2.74,0,0,0,2.61.61,71,71,0,0,0,18.16-7.31,10.35,10.35,0,0,0,5.65-7.32c.1-.54.26-.91.89-.81s.52.57.41,1c-.35,1.34.29,1.53,1.48,1.55,2.88,0,4.79,1.72,6.19,4.07.23.39.49,1,0,1.28s-.81-.26-1.07-.61a9.89,9.89,0,0,0-2.75-2.72c-2.34-1.41-4.38-1.08-5.93,1.13s-3.9,3.55-6.24,4.82A62.77,62.77,0,0,1,122.94,142c-1.49.37-1.79,1.05-1.62,2.48.92,7.42,5.13,12.05,12,13.12a6.34,6.34,0,0,0,3.43-.57,29.78,29.78,0,0,0,11.9-8.94c.42-.5.83-1,1.29-1.46s.74-.75,1.21-.32,0,.85-.25,1.21a38,38,0,0,1-11.14,9.71,21.44,21.44,0,0,1-2.85,1.39c-1.12.42-1.12.91-.49,1.81a15.45,15.45,0,0,0,17.43,5.65,24.87,24.87,0,0,0,5.58-2.66,41.31,41.31,0,0,1,4.83-2.92,4.07,4.07,0,0,0,2.39-4.13c-.09-9.68,0-19.35-.08-29,0-1.55.47-2,1.91-1.73a4.13,4.13,0,0,1,.11.69Q168.57,143.35,168.54,160.37Z" transform="translate(-79.69 -48.82)"/><path class="cls-3" d="M107,118.63c4.8.07,4.8.07,4.8-4.74,0-3.3,0-3.31,3.24-3.38,2.52-.06,5-.08,7.57-.14a3.35,3.35,0,0,1,3.15,1.17c.31.44.58.48.92,0a2,2,0,0,1,1.93-1l.39.35c-1.46.31-1.87,1.46-2.2,2.69-.08-.17.11-.46-.22-.51a1.19,1.19,0,0,0-.07.29c0,1-.1,2-.14,3a1.2,1.2,0,0,0-1.26,1.29,1,1,0,0,0,1.26.86.68.68,0,0,1-.42.9c-2-1.36-1.92-1.31-.82-3.38a4.56,4.56,0,0,0,0-3.92c-.49-1.2-1.64-.94-2.61-.93-2.41,0-4.82,0-7.23.06a.53.53,0,0,0-.56.54c0,2.45,0,4.89,0,7.34a.57.57,0,0,0,.51.6c.37.54.06,1.68,1.32,1.42s.61-1.1.68-1.71a15.68,15.68,0,0,0,0-1.94c0-4.86,0-4.86,4.84-4.51h.18c.72,0,1.31.24,1.32,1.09s-.58,1.08-1.31,1.09h-3.1l-.18.42c1.77,1.76,3.54,3.53,5.32,5.28.37.37.87.29,1.34.29,2.75,0,5.49-.06,8.24,0a3.4,3.4,0,0,0,3.18-1.45h.83c.35.55.06,1.68,1.31,1.4,1.1-.24.51-1.12.65-1.72a2.88,2.88,0,0,0,0-.88c-.13-1.13.35-1.61,1.5-1.57,1.46,0,2.93,0,4.4,0a2.18,2.18,0,0,0,2.12-1,3.75,3.75,0,0,0-2-5.06l.74-.33c.22,0,.53,0,.64.11a1.24,1.24,0,0,0,2.2-.12c0,.17,0,.33.05.5,0,2.82,0,5.65,0,8.48,0,.61-.36,1.55.82,1.57s.84-1,.91-1.66,0-1.29,0-1.94c0-4.82,0-4.82,4.8-4.55h.36c.74,0,1.27.33,1.23,1.16s-.56,1-1.22,1c-1,0-2.08,0-3.59,0,2.13,2.13,3.93,3.95,5.77,5.73a1.52,1.52,0,0,0,1,.25c3,0,6,0,9,0a1.92,1.92,0,0,0,2.12-2.07c0-2,0-4,0-6a1.72,1.72,0,0,0-1.88-1.88c-1.17,0-2.35,0-3.53,0-4.12,0-4.12,0-4.65,4-.48-.72.16-1.69-.61-2.54-.51,1-.1,2-.39,2.9a2.79,2.79,0,0,1-.21-1.86,2.6,2.6,0,0,0-1.16-2.54v-.45c.61-.05,1,.38,1.32.74s.59.46.89.09c1.1-1.36,2.62-1,4.06-1.07,1.17,0,2.35,0,3.52,0,.46,0,1.11-.1,1.36.15,1.4,1.44,2.74.92,4.12,0l.72.31c-1.93.86-2.39,1.92-1.88,4.61.33,1.78,1.84,1.53,3.07,1.62s2.46,0,3.69,0a1,1,0,0,1,1.11.91.93.93,0,0,1-.87,1.12c-1.48.08-3,.5-4.44-.23,1.36.24,2.63-.47,4-.38.17,0,.4-.18.53-.34s0-.34-.12-.44c-.48-.5-4.42-.13-5,.46-.69.32-2.05-.56-2.06.9s1,2,2.37,2h.18c1.59,0,3.17,0,4.76,0,2.06,0,2.53-.58,2.54-2.87,0-2.46-.48-3.07-2.51-3.11-1.47,0-2.94,0-4.4,0a1,1,0,0,1-1.14-.89c-.12-.59.18-1.17.75-1.18,1.59,0,3.22-.54,4.75.31-1.17,0-2.34.06-3.5.11-.5,0-1.24-.15-1.22.6s.69.49,1.13.5c.94,0,1.89-.06,2.82,0,1.21.12.95-.56.77-1.24.22,0,.48,0,.64.15.54.41,1.18.82,1.69.23a1.5,1.5,0,0,0-.17-1.92,5.68,5.68,0,0,0-.74-.73v-.45c.72-.13,1.46,1.33,2.17,0l.4.31c-.54,1.74.25,2.27,1.85,2s2.19.42,2,2a38.16,38.16,0,0,0,0,4.41c0,.72-.39,1.77,1,1.73s.91-1.12.94-1.82a28.44,28.44,0,0,0,0-4.23c-.16-1.69.41-2.42,2.13-2.13s2.16-.41,1.85-1.94l0-.46a3.05,3.05,0,0,0,.52,0c3.17-.26,3.2-.27,3.35,2.77,0,.81.25,1.19,1.11,1.14,1.17-.06,2.51.3,3.47-.16s.32-2,.52-3c.07-.36.12-.7.59-.73,0,.16,0,.32,0,.49,0,4.08,0,4.08-3.7,4.08-2.59,0-2.59,0-2.7-2.6,0-.66.07-1.33-1-1.31s-.85.61-.85,1.21v7.42c0,.58-.11,1.22.81,1.26s1-.59,1-1.27c.13-2.71.14-2.71,2.77-2.71h1.06c3,0,2.55-.18,2.57,2.55,0,.59-.25,1.38.81,1.42s.95-.78,1-1.46c0-2.82.07-5.65.1-8.47a.76.76,0,0,1,.21,0l0,0v9.7h.66v-9.71h0l.22,0c0,2.83.11,5.65.07,8.47,0,1.17.37,1.54,1.52,1.5,2.41-.07,4.83,0,7.25,0,.59,0,1.2.06,1.22-.84s-.62-1-1.3-1h-5.47c-.8,0-1.58,0-1.61-1.1s.8-1.27,1.66-1.28c1.18,0,2.36,0,3.54,0,.58,0,1-.09,1.08-.84s-.44-1-1.12-1c-1.23,0-2.47,0-3.71,0-.73,0-1.24-.1-1.27-1s.45-1.19,1.3-1.17c1.83,0,3.65,0,5.48,0,.59,0,1.38.25,1.42-.81s-.77-1-1.46-1L206.5,111c1.2-.44,2.44-.11,3.66-.21,2-.15,4,.31,5.92-.28,4.41,0,8.82-.08,13.24-.09.7,0,1.59-.33,1.91.76.13.45.39.2.66.08a11.78,11.78,0,0,1,10.22.15c.31.15.54.25.76,0,1.21-1.35,2.82-1,4.32-1s2.84-.09,4.24,0a2.47,2.47,0,0,1,1.84,4.08c-.71.93.72,1.34.41,2.13a5.44,5.44,0,0,0-4.89-1.56,20.66,20.66,0,0,1-2.61,0,1,1,0,0,1-1.08-.93c0-.52.08-1,.76-.84-.29.76-.15,1.24.78,1.23s1.88.05,2.82,0c.42,0,1.23.39,1.19-.47,0-.63-.76-.6-1.29-.61l-3.5-.11a6,6,0,0,1,5.29.17c.68.4,1.32.75,1.87.1s0-1.24-.34-1.76a2.18,2.18,0,0,0-1.84-.91c-1.77,0-3.54-.06-5.31,0a2.54,2.54,0,0,0-2.51,1.62l-1.1-.36a2.49,2.49,0,0,0-1.94-1.07c-2.07,0-4.13,0-6.19,0-1.23,0-1.79.73-1.79,1.94,0,1.94,0,3.89,0,5.83a1.87,1.87,0,0,0,2.12,2.18c1.65,0,3.31,0,4.95,0a3.29,3.29,0,0,0,2.83-1.11l.35.35a2.44,2.44,0,0,1-2.44,1.4c-2,0-3.89,0-5.83,0a1.08,1.08,0,0,1-.36,0c-1.17-.38-2.11-.84-3.56-.1s-2.08,0-2.09-1.84c0-1.65-.07-3.3,0-4.94s-1.13-1.28-2-1.31-1.9-.24-1.88,1.31a31.46,31.46,0,0,1-.13,6c-.37-2.5.28-5-.34-7.53.74-.76,1.67-.24,2.5-.37.61-.09,1.37.16,1.38-.88s-.68-.93-1.34-.93c-2.36,0-4.72,0-7.08,0-.65,0-1.52-.26-1.53.89s.89.76,1.51.92c.8.22,1.93-.7,2.4.68l-.45.07c-3.82-.42-7.65-.06-11.48-.14-.32,0-.78,0-.8.44s.44.46.77.47c1.3,0,2.6,0,3.9,0s1.39.76,1.42,1.73-.38,1.51-1.45,1.47c-1.42-.05-2.84,0-4.25,0-.3,0-.63,0-.68.41-.07.52.35.54.7.54,2,0,4,.07,6,0,1.2,0,1.67.33,1.68,1.6s-.56,1.58-1.72,1.56c-3.66,0-7.31-.06-11,0-1.31,0-1.79-.41-1.75-1.73.09-2.62.19-2.37-2.35-2.39-.54,0-1.07,0-1.6,0-.87-.06-1.16.35-1.1,1.16,0,.53,0,1.06,0,1.59.1,1.16-.53,1.37-1.52,1.37s-1.71-.13-1.66-1.42c.07-1.88,0-3.77,0-5.66,0-.91-.28-1.3-1.22-1.17a6,6,0,0,1-1.41,0c-1.13-.11-1.6.31-1.55,1.49.08,1.71,0,3.43,0,5.13.06,1.25-.41,1.64-1.64,1.65s-1.62-.54-1.59-1.71c.06-1.77,0-3.54,0-5.31,0-.51.09-1.24-.68-1.18-1.2.08-2.52-.6-3.59.73-.52.65-.34.92,0,1.45a5.76,5.76,0,0,1,.29,4.14,2.36,2.36,0,0,1-2.51,1.83c-2.07,0-4.14-.06-6.2,0-1.26.06-1.81-1.48-2.68-1.31s-1.4,1.31-2.54,1.3q-4.79,0-9.56,0a2.38,2.38,0,0,1-1.84-.88c-1.28-1.3-2.57-2.6-3.89-3.87-.35-.34-.65-1.06-1.24-.77s-.24,1-.26,1.46c0,.89,0,1.77,0,2.66.06,1.25-.65,1.41-1.69,1.42s-1.67-.28-1.6-1.49,0-2.43,0-4c-2,2-4.21,1.32-6.25,1.31-1.52,0-2.09.34-2,1.95.13,2.38-.84,2.86-3.1,1.68-.2-.11-.33-.26-.58-.17-3.83,1.51-7.82.27-11.71.68-.89.1-1.41-.5-1.93-1.06-1.59-1.7-3.16-3.42-4.74-5.13l-.56.37c0,1.27,0,2.55,0,3.82,0,.65.38,1.62-.51,1.86s-1.88.6-2.56-.42c-.19-.29-.25-.36-.63-.22a13.28,13.28,0,0,1-10-.06c-.23-.09-.53-.23-.62,0-.54,1.38-1.71.8-2.6.82-3.48.06-7,0-10.43,0a2.74,2.74,0,0,1-2.2-.88c-1.42-1.5-2.91-2.93-4.38-4.39-.23-.23-.46-.59-.87-.38s-.21.53-.21.81c0,1.18-.06,2.36,0,3.53s-.64,1.3-1.57,1.31-1.61-.12-1.58-1.31c0-2.66,0-5.31,0-8,0-.7-.43-1.71.59-2a2.8,2.8,0,0,1,3,.53c1.36,1.4,2.74,2.77,4.13,4.13.36.35.62.87,1.38.94.09-1.51.17-3,.26-4.5a21.39,21.39,0,0,1,.15,4.38c0,.59-.3.86-.85.89s-.8-.48-1.13-.8c-1.46-1.45-2.93-2.89-4.37-4.37a1.88,1.88,0,0,0-1.94-.52c-.92.23-.55,1.06-.56,1.63,0,2.3,0,4.59,0,6.88,0,.6-.22,1.37.83,1.4s1-.79,1-1.46c0-1.35,0-2.71,0-4.06,0-.39-.13-.9.34-1.09s.75.23,1,.52c1.63,1.61,3.31,3.19,4.85,4.88a3.23,3.23,0,0,0,3.1,1.21,1.65,1.65,0,0,0,1.21-.34c.29.38.72.35,1.13.35h7.6c.68,0,1.33,0,1.28-1s-.66-.82-1.25-.82c-1.89,0-3.77,0-5.66,0-.88,0-1.29-.37-1.27-1.27s.51-1.11,1.26-1.11h3.89c.54,0,1.1,0,1.13-.77s-.39-1-1.1-1c-1.29,0-2.59,0-3.89,0-.86,0-1.32-.23-1.29-1.19s.58-1,1.29-1c1.83,0,3.65,0,5.48,0,.6,0,1.38.2,1.41-.83s-.79-1-1.48-1l-8.48.06a1,1,0,0,1,0-.34h0c.7,0,1.39,0,2.09,0,2.71-.14,5.44.3,8.15-.23,1.15.17,2.41-.84,3.49.29l-.35.4a4.59,4.59,0,0,0-2,0c-.78.61-.11,1.52-.46,2.22-2.36,0-4.72,0-7.07,0-.47,0-1.28-.24-1.24.55s.83.43,1.3.45c1.18,0,2.36,0,3.53,0s1.16.85,1.19,1.7-.19,1.47-1.26,1.43c-1.29-.05-2.59,0-3.89,0-.39,0-.93-.08-.9.53s.57.49,1,.49l7.4-.11c.15.39,0,.9.44,1.17a2.81,2.81,0,0,0,2.46,1.42c1.76,0,3.53,0,5.29,0a2.15,2.15,0,0,0,2.43-2.37v-6.35c0-.59.06-1.23-.83-1.24s-.91.69-.91,1.34c0,1.64,0,3.29,0,4.93,0,.81-.2,1.73-1.08,1.79-1.61.11-3.25.44-4.83-.23Zm121.84-2.48v4c0,.55.18.88.8.9s1-.27,1-.93q0-4,0-8.1c0-.55-.2-.9-.81-.92s-1,.31-.94.95C228.81,113.45,228.8,114.8,228.8,116.15Zm-108.26-2.69c-.55,0-1,0-1.36,0s-1.19-.22-1.21.59.73.45,1.16.5a3.57,3.57,0,0,0,1.22,0c.83-.18,2.3.59,2.33-.6C122.7,113.05,121.2,113.67,120.54,113.46Zm34.12,0a9.19,9.19,0,0,0-1.19,0c-.53.06-1.38-.27-1.4.6,0,1.05.87.35,1.34.48a2.47,2.47,0,0,0,1.05,0c.8-.15,2.25.44,2.26-.51S155.29,113.7,154.66,113.46Z" transform="translate(-79.69 -48.82)"/><path class="cls-2" d="M168.53,95.55c-1.58.39-2-.24-2-1.81.07-8.79,0-17.57,0-26.36A5.08,5.08,0,0,0,163,62.29c-2.31-.87-5.55-.24-6.92,1.35s-1.26,4.72.17,6.81c2.71,4,1.75,8.41-2.39,11-.32.2-.73.67-1.07.24s0-.85.42-1.17a17.42,17.42,0,0,0,2-1.76,5.86,5.86,0,0,0,.53-7.33c-.19-.3-.37-.6-.55-.91-1.64-3-1.62-5.51.06-7.41a7.26,7.26,0,0,1,8.23-1.81c.91.36,1.91,1.52,2.62,1s.11-2,.3-3c.47-2.4-.71-3.8-2.62-5-3.24-2.06-6.53-3.61-10.47-2.45a11.27,11.27,0,0,0-6.6,5.3,2.39,2.39,0,0,1-2.85,1.26c-4-.57-7.64.19-10.67,3a7.33,7.33,0,0,0-2.59,4.87,9.63,9.63,0,0,1-.75,2.89c-.5,1.14-.09,1.37.93,1.3.6,0,1.3.37,1.76-.37a18.71,18.71,0,0,1,8.22.44,6.42,6.42,0,0,1,4.52,6.13,47.25,47.25,0,0,0,0,5.83c.34,2.39,1.13,3.1,3.5,3.33a16,16,0,0,0,4.93-.13,8.54,8.54,0,0,0,5.85-4.19c.32-.55.5-1.21,1.19-1.6.57.78.2,1.44-.18,2.1A11.63,11.63,0,0,1,148,86.93c-2.9-.85-4.42-3.19-4.17-6.36a25.1,25.1,0,0,0,.14-3.35c-.22-3.86-2.38-6-6.24-6.31a20.31,20.31,0,0,0-9.69,1.62c-3.62,1.58-5.12,4.93-5.39,8.56a10.44,10.44,0,0,1-3.12,7.09,9.54,9.54,0,0,0-2.91,6.48c0,1.18-.8.9-1.47,1-.94.09-1-.45-1-1.21.25-3.49,2-6.24,4.29-8.71a5.6,5.6,0,0,0,1.57-3.55c.45-5.16,2.92-9.39,6.45-13.06a3.78,3.78,0,0,0,1.3-2c1.23-7.58,7.33-11.1,14.28-11.55a5.26,5.26,0,0,0,4.29-2.06,12.58,12.58,0,0,1,15.56-3.2,47.28,47.28,0,0,1,6.59,4.13c0,2.59.07,5.18.07,7.77Q168.58,78.85,168.53,95.55Z" transform="translate(-79.69 -48.82)"/><path class="cls-4" d="M168.54,160.37q0-17,0-34a4.13,4.13,0,0,0-.11-.69c2.39-.31,2.43-.28,2.43,2q0,14.58,0,29.15c0,1.27.21,2.45,1.35,3,3.73,2,6.95,4.81,11.06,6.14a15.39,15.39,0,0,0,18.36-7,2.42,2.42,0,0,1,2-1.39,15.29,15.29,0,0,0,7.09-2.94c.52-.38,1.35-.7.93-1.65a1.76,1.76,0,0,0,1.93-2c1.59-1.17,1.55-3,2-4.7.7-.51.56-1.14.26-1.8-.06-1.48.29-2.7,1.87-3.26a1.58,1.58,0,0,0,1-1.65c.43-.12,1,.67,1.3-.27a10.32,10.32,0,0,0,2.22-7.44,4,4,0,0,1,1.08-3.38,3.77,3.77,0,0,0,1.08-1.58c.42-1.77,1.73-1.44,2.94-1.42.55,0,.72.33.59.83a1.32,1.32,0,0,1-.19.49c-2,2.65-2.34,5.77-2.84,8.89A10.35,10.35,0,0,1,220,143a2.67,2.67,0,0,0-1.29,2.1c-1,6.44-3.75,11.91-10.24,14-3.36,1.11-5.57,3.12-7.88,5.42a17.06,17.06,0,0,1-20.36,3.34C176.07,165.81,172,163.63,168.54,160.37Z" transform="translate(-79.69 -48.82)"/><path class="cls-4" d="M168.53,95.55q0-16.69.06-33.4c0-2.59,0-5.18-.07-7.77,3.09-2,6-4.44,9.73-5.22a12.49,12.49,0,0,1,13,4.62,4.07,4.07,0,0,0,3.27,1.63c5,.25,9.6,1.73,12.79,6a12.87,12.87,0,0,1,2.14,5.17,4.94,4.94,0,0,0,1.4,2.57c3.84,4,6.41,8.54,6.52,14.22a2.5,2.5,0,0,0,1,1.77,19.25,19.25,0,0,1,4.29,6.6,6.73,6.73,0,0,1,.41,2.42c0,.71.13,1.45-1,1.43-.85,0-1.47,0-1.49-1.17a8.29,8.29,0,0,0-.92-3.2c0-.47-.09-1.08-.66-1.07-.72,0-.45.69-.46,1.09,0,1.22,0,2.45,0,3.87-.68-.94,0-1.93-.6-2.66,0-.81-.06-1.63,0-2.44a2.93,2.93,0,0,0-1.2-2.9,4.65,4.65,0,0,1-2-5c.45-2.2-1.25-3.75-1.7-5.68a18,18,0,0,0-2.64-3.56c-.19-.94-1-.48-1.54-.72-1.3-2.92-2.36-6-5.16-8a1.64,1.64,0,0,1-.63-1.73,2.46,2.46,0,0,0-1.5-2.86c-.43-.72-1.31-.38-1.87-.8a14.45,14.45,0,0,0-3.58-.56,2.13,2.13,0,0,0-1.43-.09c-2.36.76-3.72-.24-5.12-2.21a10,10,0,0,0-8.25-4.58c-.78-.08-.79.62-1.07,1a1.93,1.93,0,0,0-2.38-.42c-1.11.36-.93.81-.4,1.48a.76.76,0,0,0-.79.46c-.93-1.32-1.9-.58-2.85-.05s-.61,1.11-.12,1.72c-.55.2-1-.55-1.59-.12l-1.22.77c-1,.44-.56,1.33-.56,2q-.07,18.6-.07,37.22Zm38.24-30.32a11.3,11.3,0,0,0-1.89-3c-.22-.26-.42-.67-.83-.35a.69.69,0,0,0-.07,1A5.91,5.91,0,0,0,206.77,65.23Z" transform="translate(-79.69 -48.82)"/><path class="cls-5" d="M183.64,149.8c-1.34.45-2.3.46-2.89-.64a1.32,1.32,0,0,1-.12-1.33c2.31-4.57,1.8-6.31-2.87-9.31a68.53,68.53,0,0,1-.06,8c-.49,4.06.71,7.18,4,9.58,1.12.81,1.85,2.13,3.46,2.29.71.07,1,.84,1,1.49,0,.81-.74,1.21-1.43,1.38a1.41,1.41,0,0,1-1.71-.93c-.5-2.88-3-4.1-4.78-5.87a4.34,4.34,0,0,1-1.56-3.46c.09-5.9,0-11.8.05-17.7a4,4,0,0,0-1.29-3.13c-1.18-1.15-2.26-2.41-3.35-3.64-.24-.26-.83-.52-.36-1,.32-.32.79-.15,1.13.13s.69.65,1,1c3.37,3.47,6.71,7,10.11,10.39a2.83,2.83,0,0,1,.84,2.21c0,3.07,0,6.14,0,9.2,0,.86-.19,1.76.59,2.48a1.2,1.2,0,0,1,.05,1.88,1.52,1.52,0,0,1-1.88.52c-.9-.41-.93-1.17-.79-1.94A7.86,7.86,0,0,1,183.64,149.8Zm-.14-2.28c0-3.24,0-6,0-8.83a1.36,1.36,0,0,0-.37-.76q-2.25-2.48-4.55-4.91c-.18-.2-.52-.43-.73-.39-.44.1-.26.57-.32.89a4.42,4.42,0,0,0,2.08,4.66c1.76,1.28,3.08,2.66,3,5.17C182.56,144.5,182.25,146,183.5,147.52Z" transform="translate(-79.69 -48.82)"/><path class="cls-2" d="M207.24,97.54l.09.45a74.34,74.34,0,0,0,0,9.44l0,.14a3.91,3.91,0,0,1-3.1-.39h0a.66.66,0,0,0-.71-.72h0c0-.47-.27-.68-.71-.72h0a.68.68,0,0,0-.71-.71h0A1.23,1.23,0,0,0,201,104h0c0-.47-.27-.68-.72-.71l-.08.13.09-.13a1,1,0,0,0-.85-.93h0c-.2-.66-.72-1-1.5-1.53,0,2.06,0,3.79,0,5.52,0,.5.16,1.23-.54,1.29-1.1.1-2.58.43-3.24-.12-1.73-1.44-3.57-.56-5.34-.81a.57.57,0,0,0-.67.62h0c-.66-.28-1.33.89-1.9.09s.29-1.36.57-2c.83-1.8,1.75-3.55,2.64-5.32,1-2.08,1-2.07,2.44-.14a2.87,2.87,0,0,0,.7.51v0a1.51,1.51,0,0,0,.69,1.39v0a1.57,1.57,0,0,0,.71,1.39v0a10,10,0,0,0,1.72,3.49c.15-2.37.15-4.7.15-7s0-2.45,2.47-2.31l-.06,0a.7.7,0,0,0,.74.75l0,0a.53.53,0,0,0,.5.6h0a.82.82,0,0,0,.7.7h0c.07.33.24.53.61.5l0,0c0,.27.11.4.38.38l0,0c0,.28.11.41.38.39l0,0a.7.7,0,0,0,.74.74l0,0c0,.36.17.53.5.6h0a.83.83,0,0,0,.71.71h0c.08.33.24.55.62.47h0c0,.53.36,1,.84.85s.28-.68.29-1a28.85,28.85,0,0,0,0-3.48C204.91,97.73,205.53,97.06,207.24,97.54Zm-16.4,4.15c-.52,1.07-1.51,1.84-1.07,2.77.25.51,1.74.49,2,0C192.36,103.51,191.26,102.79,190.84,101.69Z" transform="translate(-79.69 -48.82)"/><path class="cls-2" d="M157.83,146c0,4.83-1.59,7.69-4.47,9.91a3.42,3.42,0,0,1-1.08.58c-.36.11-.85.3-1.11-.17s.06-.78.39-1.06c.75-.65,1.58-1.24,2.28-2a8.45,8.45,0,0,0-.6-12.93c-1.84-1.56-5.27-1.28-7.59,1-4,3.83-8.93,4.48-14.05,4.74-.5,0-1.23.14-1.22-.63s.68-.71,1.21-.76a36,36,0,0,0,9-1.68,8.05,8.05,0,0,0,3.32-2,5.92,5.92,0,0,1,.82-.66c2.55-1.95,5.3-3.38,8.47-1.67A8.62,8.62,0,0,1,157.83,146Z" transform="translate(-79.69 -48.82)"/><path class="cls-5" d="M150.14,107.7c-.22-.08-.57-.28-.64-.21-1.46,1.48-3.3.63-4.95.85-1.26.17-1.85-.35-1.77-1.68s0-2.68,0-4.27a9.88,9.88,0,0,0-2.48,2.16c-.67.64-1.26.88-1.83-.08l.24-.24c.78.51,1.19-.12,1.62-.58.9-1,1.77-2,2.66-2.93l.43.32c0,1.76,0,3.51,0,5.27,0,.71-.11,1.43,1,1.42s1.07-.67,1.07-1.41c0-2.42,0-4.84,0-7.25,0-.55.29-1.31-.45-1.55a1.93,1.93,0,0,0-2.13.43c-.9.94-1.86,1.81-2.74,2.76-.63.69-1.11.65-1.73,0-.83-.92-1.77-1.74-2.61-2.65a2,2,0,0,0-2.1-.56c-.91.21-.57,1-.58,1.63,0,2.42,0,4.83,0,7.25,0,.77,0,1.37,1.09,1.37s1-.68,1-1.41c0-1.73,0-3.46,0-5.69l2,2.18-.23.25c-.63-.38-1.12-.47-1.12.52s-.06,2.12,0,3.18c.07,1.27-.55,1.62-1.71,1.61s-1.78-.26-1.75-1.57c.06-2.59,0-5.18,0-7.77,0-.76-.39-1.75.72-2.12a2.71,2.71,0,0,1,2.82.48,34.69,34.69,0,0,1,2.51,2.49c.57.62,1,.66,1.56,0s1.42-1.41,2.11-2.14c.51-.52,1.17-1.15,1.81-.94,1.69.57,3.66-.91,5.17.76.19.2.42.07.64,0a13.49,13.49,0,0,1,9.59-.11c.72.23.85-.59,1.38-.34,0,.21,0,.42-.05.64l0,.71-1,0c-.49-.42-.94-1-1.63-1-2.23,0-4.47,0-6.7,0a1.54,1.54,0,0,0-1.55,1.25c-.16,2.84-.72,5.71.37,8.5Zm-3.59-.33c0,.28.21.35.46.29l1,0c.47-.06.5-.43.51-.78,0-2.88,0-5.75,0-8.63,0-.35-.05-.71-.53-.75h-1c-.23-.06-.39,0-.44.24A63.57,63.57,0,0,0,146.55,107.37Z" transform="translate(-79.69 -48.82)"/><path class="cls-4" d="M243,112.57a2.54,2.54,0,0,1,2.51-1.62c1.77-.06,3.54,0,5.31,0a2.18,2.18,0,0,1,1.84.91c.39.52.83,1.19.34,1.76s-1.19.3-1.87-.1a6,6,0,0,0-5.29-.17h0c-.68-.11-.81.32-.76.84a1,1,0,0,0,1.08.93,20.66,20.66,0,0,0,2.61,0,5.44,5.44,0,0,1,4.89,1.56h0c0,.54,0,1.08,0,1.62V119a3.21,3.21,0,0,1-3.59,2.14,28.57,28.57,0,0,0-4.24,0,3,3,0,0,1-2.65-1.1l-.06-1.69,2.08-.07h0c-.08.82.47,1,1.1,1,1.24,0,2.48,0,3.72,0a1.08,1.08,0,0,0,1.21-1,1.1,1.1,0,0,0-1.14-1.28,19.46,19.46,0,0,0-3.89,0,3.2,3.2,0,0,1-3.09-1.17Z" transform="translate(-79.69 -48.82)"/><path class="cls-2" d="M185.54,98.67v0c0,2-.37,2.24-2.31,1.42a.85.85,0,0,0-.61-.57c-4.28-1-6,.5-5.36,4.8.07.49.17,1.08.66,1.13,1.74.19,3.53.73,5.21-.31.69-1,.53-1.63-.85-1.6-.7,0-1.41,0-2.11,0s-.8-.52-.8-1.09.23-.88.83-.88H182c4,0,4,0,3.58,4a2.08,2.08,0,0,1-2.28,2.15c-1.89,0-3.77,0-5.65,0a2.6,2.6,0,0,1-2.26-1.13,57.63,57.63,0,0,1,.06-8.1,2.65,2.65,0,0,1,1.78-1c2.57,0,5.16-.33,7.7.31l0,0a.34.34,0,0,0,.37.37l0,0Z" transform="translate(-79.69 -48.82)"/><path class="cls-4" d="M159.72,98.46l1,0c0,2.47.05,5,.12,7.42,0,.72-.44,1.78,1,1.83s1-1,1-1.74c.06-2.65-.38-2.38,2.52-2.4h.53c3,0,3,0,3.19,3,0,.79.23,1.2,1.11,1.18s.9-.56.89-1.19c0-2.6,0-5.19,0-7.79,0-.7,0-1.28-1-1.29s-1,.58-1,1.28c-.14,2.89-.15,2.89-3.09,2.89h-.88c-2.24,0-2.24,0-2.26-2.29,0-2.06-.09-2.12-2.11-1.58,0-.22,0-.43.05-.64,2.16-.44,2.69-.12,2.6,1.9-.08,1.58.37,2.34,2,2.07a3.36,3.36,0,0,1,1.05,0c1.41.19,2-.31,1.92-1.83-.09-2.29.33-2.61,2.72-2.17,1.05.19,2.07-.63,3.08,0l.38.29a1,1,0,0,1,.06.33l-.31,0c-1.88-.58-2-.48-2,1.39,0,2.22.09,4.45,0,6.66-.09,1.58.42,2.18,2,1.81l.38,0c-.25.78-.92.58-1.47.6s-1.41,0-2.11,0c-2.63.1-2.7.1-2.64-2.48,0-1.29-.34-1.87-1.68-1.7a7,7,0,0,1-1.59,0c-1.3-.13-1.74.43-1.74,1.73,0,2.67-.81,3.12-3.22,1.85a1.51,1.51,0,0,0-1.18,0l-.12-.13c.63-.72,1.35-1.54.8-2.48-.45-.77-1.37-.25-2.09-.17.53-1.34,1.74-.39,2.56-.75a3.12,3.12,0,0,0-.12-3.2l-2.08,0c.37-.6.94-.36,1.46-.35C160.1,99.94,159.79,99.18,159.72,98.46Z" transform="translate(-79.69 -48.82)"/><path class="cls-5" d="M194.74,58.17a2.13,2.13,0,0,1,1.43.09c0,6.24.06,12.49,0,18.74a3.9,3.9,0,0,0,1.26,3.1c4,3.91,7.92,7.92,11.93,11.83a3,3,0,0,1,.94,2.85c-.07.45-.32.81-.82.74s-.49-.51-.43-.85c.2-1.23-.57-1.94-1.34-2.7-3.89-3.86-7.74-7.76-11.66-11.6a3.68,3.68,0,0,1-1.2-2.94c.06-5.72,0-11.44,0-17.15C194.88,59.58,194.79,58.87,194.74,58.17Z" transform="translate(-79.69 -48.82)"/><path class="cls-2" d="M146.87,93.6c2.9,0,5.21-.71,7.58-.59a7.2,7.2,0,0,1,4.48,1.36c.32.26.89.64.39,1.13-.31.3-.76.08-1.09-.26-1.35-1.37-3.1-1.25-4.79-1.15s-3.52.34-5.29.5a13.36,13.36,0,0,1-9.8-2.75c-4.21-3.33-3.58-7.56-1-11.27.23-.33.54-.75,1-.39s0,.62-.12.93c-3.25,6.19-1.11,10.66,5.83,12.1C145.17,93.44,146.29,93.52,146.87,93.6Z" transform="translate(-79.69 -48.82)"/><path class="cls-2" d="M164.06,144.3a19.32,19.32,0,0,1-1.19,7.75c-.21.55-.42,1.47-1.26,1.17s-.42-1.06-.22-1.68c1.39-4.4,2-8.84.52-13.36a8.68,8.68,0,0,0-1-2,16.73,16.73,0,0,1-2.57-9.41c0-.54-.07-1.13.75-1.11s.63.56.63,1a19,19,0,0,0,2.76,9.56A14.63,14.63,0,0,1,164.06,144.3Z" transform="translate(-79.69 -48.82)"/><path class="cls-5" d="M191.09,65.63c1.12,0,2.2,1.22,1.62,2.11-1.29,2-.78,4.14-.65,6.17s.22,4.23.22,6.34a3.18,3.18,0,0,0,1.05,2.48c2.88,2.79,5.7,5.63,8.54,8.47a3.93,3.93,0,0,1,1,1.19,3.82,3.82,0,0,1-.13,2.9c-.31.62-.73,0-.78-.48s0-.94,0-1.41c0-.67-.55-1-1-1.42-2.58-2.49-5.07-5.1-7.82-7.4-2-1.66-2.49-3.68-2.51-6s0-4.59,0-6.89c0-1.34.12-2.65-.75-3.88A1.43,1.43,0,0,1,191.09,65.63Z" transform="translate(-79.69 -48.82)"/><path class="cls-5" d="M193.69,144.48c0,2.18,0,4.36,0,6.54a4,4,0,0,0,.69,3,1.2,1.2,0,0,1-.34,1.85,1.65,1.65,0,0,1-2.25-.18c-.58-.56-.79-1.42-.22-1.89,1-.78.82-1.73.83-2.7V137.66c0-1,.14-1.95-.92-2.66a1.23,1.23,0,0,1-.08-1.89,1.42,1.42,0,0,1,1.91-.33c.66.35,1.38.89,1.05,1.62-1.32,2.83-.38,5.79-.67,8.67C193.65,143.53,193.69,144,193.69,144.48Z" transform="translate(-79.69 -48.82)"/><path class="cls-5" d="M213.62,151a1.76,1.76,0,0,1-1.93,2,1.22,1.22,0,0,1-.44-2.22,2.32,2.32,0,0,0,.64-1.89c0-1.41,0-2.83,0-4.24-.06-2-.2-3.92,1.9-5.1.71-.4.6-1.22.6-1.93q0-5.31,0-10.62c0-.54-.19-1.37.64-1.36.59,0,.62.77.63,1.29,0,3.77,0,7.55,0,11.32a3.19,3.19,0,0,1-1.46,2.51,3.52,3.52,0,0,0-1.33,3.25c.1,1.65.06,3.3,0,4.95A2.48,2.48,0,0,0,213.62,151Z" transform="translate(-79.69 -48.82)"/><path class="cls-5" d="M184.27,79.28c0-1.94,0-3.89,0-5.83,0-.55-.15-1.37.72-1.32.68,0,.57.77.58,1.28,0,3.53.07,7.07,0,10.6A4.68,4.68,0,0,0,187,87.63a51.71,51.71,0,0,1,3.83,4.14,4.42,4.42,0,0,0,3,2c.67.08,1.49.6,1.29,1.4s-1.07,0-1.45.21c-1.79.83-1.81-.8-2.52-1.59-1.76-2-3.57-3.91-5.45-5.77a4.18,4.18,0,0,1-1.39-3.44C184.33,82.81,184.27,81.05,184.27,79.28Z" transform="translate(-79.69 -48.82)"/><path class="cls-5" d="M207.74,126.14c.28-.89.73-.88,1.09-.11a3.59,3.59,0,0,1,.1,1.4v18.88a3.93,3.93,0,0,0,.51,2.53,1.38,1.38,0,0,1-.39,2,1.47,1.47,0,0,1-2,0,1.49,1.49,0,0,1-.4-2.06,4.15,4.15,0,0,0,.57-2.84c0-4.59,0-9.18,0-13.77,0-.6-.28-1.31.39-1.79.44.58.23,1.25.23,1.88,0,5.43,0,10.85,0,16.28a1,1,0,0,0,.35-.77q0-10.25,0-20.5C208.28,126.82,208.44,126.26,207.74,126.14Z" transform="translate(-79.69 -48.82)"/><path class="cls-5" d="M174.67,107.67l-.38,0,.12-.64,1-.39a2.6,2.6,0,0,0,2.26,1.13c1.88,0,3.76,0,5.65,0a2.08,2.08,0,0,0,2.28-2.15c.4-4,.41-4-3.58-4h-1.76c-.6,0-.83.32-.83.88s.05,1.08.8,1.09,1.41,0,2.11,0c1.38,0,1.54.56.85,1.6L183,105c-.14-1.66-1.4-.63-2.12-.85s-1.75.3-1.91-1-.09-2.17,1.64-2.08c.8,0,2.05.74,2.44-.78l.23-.21c1.94.82,2.27.62,2.31-1.42,1,1.2,0,2.6.4,3.88.19.52-.13,1.15.42,2l2.58-5c.24-.47.46-.95.7-1.42.58-1.09,1.3-1.22,1.94-.11a4.8,4.8,0,0,1,1,2.42,2.87,2.87,0,0,1-.7-.51c-1.41-1.93-1.4-1.94-2.44.14-.89,1.77-1.81,3.52-2.64,5.32-.28.62-1.12,1.22-.57,2s1.24-.37,1.9-.09c-.16,1.06-1,1-1.74,1-2.78,0-5.57-.08-8.34.07C176.79,108.46,175.87,107.52,174.67,107.67Z" transform="translate(-79.69 -48.82)"/><path class="cls-5" d="M199.75,58.82c.56.42,1.44.08,1.87.8-.8.26-.79.9-.79,1.58,0,2.41,0,4.83,0,7.24,0,1.1.38,1.39,1.44,1.41,3.54.08,3.54.12,3.52,3.6,0,1.12,0,2.24,0,3.36a2.27,2.27,0,0,0,.75,2.19,1.29,1.29,0,0,1,0,1.91,1.47,1.47,0,0,1-2.07.26c-.68-.44-1-1.34-.57-1.83,1.55-1.7.76-3.69.95-5.55.06-.53,0-1.07,0-1.59.12-1.12-.42-1.37-1.45-1.39-3.53-.07-3.52-.11-3.53-3.69C199.81,64.35,199.78,61.59,199.75,58.82Z" transform="translate(-79.69 -48.82)"/><path class="cls-5" d="M187.05,77.29c0-1.76,0-3.53,0-5.29,0-.41-.19-1.09.56-1,.56,0,.42.63.42,1,0,3.06.08,6.12,0,9.18a4.07,4.07,0,0,0,1.44,3.37c3,2.89,5.94,5.88,8.9,8.83a6.6,6.6,0,0,1,.92,1.06.72.72,0,0,1-.08,1c-.36.3-.59,0-.85-.28-3.47-3.52-6.93-7-10.44-10.52a2.88,2.88,0,0,1-.87-2.36C187.08,80.59,187.05,78.94,187.05,77.29Z" transform="translate(-79.69 -48.82)"/><path class="cls-5" d="M199.4,136.27c0,2.82,0,5.65,0,8.48a3,3,0,0,0,.7,2.44,1.32,1.32,0,0,1-.11,2,1.41,1.41,0,0,1-2.07,0c-.63-.63-1-1.6-.29-2.21a2.86,2.86,0,0,0,.77-2.55V127.88c0-.41,0-.82,0-1.24s0-.8.45-.82.53.52.54.9c0,2.3,0,4.6,0,6.9Z" transform="translate(-79.69 -48.82)"/><path class="cls-5" d="M202.66,136.74c0-3.24,0-6.48,0-9.73,0-.53-.23-1.41.62-1.36.64,0,.36.88.36,1.35q0,9.1,0,18.21a3.54,3.54,0,0,0,.86,2.92,1.19,1.19,0,0,1-.2,2,1.61,1.61,0,0,1-2.25-.08,1.32,1.32,0,0,1-.1-2c.8-.65.68-1.42.69-2.22Zm.58,11.69c-.22,0-.55.14-.52.59a.61.61,0,0,0,1.21.07C204,148.68,203.79,148.46,203.24,148.43Z" transform="translate(-79.69 -48.82)"/><path class="cls-5" d="M179.74,95.33a3.26,3.26,0,0,1-3.29-3.08c0-4.19,0-8.37,0-12.55a3.93,3.93,0,0,0-.66-2.83c-.62-.72-.37-1.41.37-2a1.62,1.62,0,0,1,2.11,0,1.29,1.29,0,0,1,.2,2,4.21,4.21,0,0,0-1,3.42c0,3.47.08,6.95,0,10.42a3.75,3.75,0,0,0,1.89,3.83,1.89,1.89,0,0,1,.46.51S179.75,95.27,179.74,95.33Z" transform="translate(-79.69 -48.82)"/><path class="cls-5" d="M170.32,95.51q0-18.62.07-37.22c0-.69-.43-1.58.56-2Q171,73,171,89.68c0,1.47,0,2.95,0,4.42C171,94.67,171.13,95.33,170.32,95.51Z" transform="translate(-79.69 -48.82)"/><path class="cls-5" d="M181.55,72.44c.18,1.77.41,3.13.43,4.49.07,3.94.12,7.88,0,11.82a4.11,4.11,0,0,0,1.55,3.68c1,.79,1.94,1.68,3.08,2.67-1.1.69-1.61.42-2-.09-.27-.31-.42-.76-.74-1-2.76-1.86-3-4.56-2.85-7.57.17-4,0-8,.06-12A2.65,2.65,0,0,1,181.55,72.44Z" transform="translate(-79.69 -48.82)"/><path class="cls-5" d="M213.09,76.44c.45,1.93,2.15,3.48,1.7,5.68a7,7,0,0,0-.07,5.78c.32.86.83,1.61-.09,2.34a1.63,1.63,0,0,1-2.14-2.47c.55-.52.39-1.2.41-1.83C213,82.78,212.74,79.6,213.09,76.44Z" transform="translate(-79.69 -48.82)"/><path class="cls-5" d="M208.91,72.16c.52.24,1.35-.22,1.54.72-.87.09-.74.76-.74,1.33,0,2.41,0,4.83,0,7.24a2.6,2.6,0,0,0,.83,1.86,1.32,1.32,0,0,1-.09,2,1.65,1.65,0,0,1-2.26,0,1.34,1.34,0,0,1-.16-2.15,2.33,2.33,0,0,0,.69-2.05C208.82,78.14,208.42,75.14,208.91,72.16Z" transform="translate(-79.69 -48.82)"/><path class="cls-5" d="M179.07,60.91c1.1.2,1.57,1.15,2.18,1.89.86,1.06,1.41,2.41,3.19,2.26.63-.06,1.14.52,1.16,1.32a1.49,1.49,0,0,1-1,1.51c-.73.28-1.69.12-1.81-.59-.49-2.78-3.09-3.88-4.46-5.92a.85.85,0,0,1-.06-.17Z" transform="translate(-79.69 -48.82)"/><path class="cls-5" d="M220,139.33c-.26.94-.87.15-1.3.27-.34-4.28,0-8.57-.14-12.86,0-.39-.05-.95.51-.94s.49.57.49,1c0,3.52,0,7,0,10.58C219.61,138,219.37,138.78,220,139.33Z" transform="translate(-79.69 -48.82)"/><path class="cls-5" d="M184.1,131.22a1.63,1.63,0,0,1-1,1.54,1.27,1.27,0,0,1-1.61-.16c-.51-.43-1.06-1.2-.65-1.65,1.18-1.31.89-2.82.94-4.3,0-.47,0-1,.62-1.07s.66.54.67,1C183.11,128.27,182.77,130,184.1,131.22Z" transform="translate(-79.69 -48.82)"/><path class="cls-5" d="M188.12,107.33a.57.57,0,0,1,.67-.62c1.77.25,3.61-.63,5.34.81.66.55,2.14.22,3.24.12.7-.06.54-.79.54-1.29,0-1.73,0-3.46,0-5.52.78.58,1.3.87,1.5,1.53-.69,0-1.08.23-1,1,.05,1.12,0,2.24,0,3.35s-.49,1.74-1.68,1.62c-1.38-.15-2.69.14-4.12-.83C191.55,106.8,189.64,107.34,188.12,107.33Z" transform="translate(-79.69 -48.82)"/><path class="cls-4" d="M207.74,126.14c.7.12.54.68.54,1.11q0,10.26,0,20.5a1,1,0,0,1-.35.77c0-5.43,0-10.85,0-16.28,0-.63.21-1.3-.23-1.88C207.72,129,207.73,127.55,207.74,126.14Z" transform="translate(-79.69 -48.82)"/><path class="cls-5" d="M198.33,97.49c-2.47-.14-2.47-.14-2.47,2.31s0,4.65-.15,7a10,10,0,0,1-1.72-3.49c.61.35,1.23.71,1.22-.49s0-2.47,0-3.7C195.21,96.82,196.15,96.32,198.33,97.49Z" transform="translate(-79.69 -48.82)"/><path class="cls-3" d="M243.15,120a3,3,0,0,0,2.65,1.1,28.57,28.57,0,0,1,4.24,0,3.21,3.21,0,0,0,3.59-2.14c.15,1.63-.63,2.67-2.25,2.73-2.16.08-4.33,0-6.49,0a2.34,2.34,0,0,1-2.19-1.48Z" transform="translate(-79.69 -48.82)"/><path class="cls-5" d="M218,92.45c.62.73-.08,1.72.6,2.66,0-1.42,0-2.65,0-3.87,0-.4-.26-1.09.46-1.09.57,0,.62.6.66,1.07-.89.94-.33,2.09-.45,3.14-.07.58,0,1.23-.82,1.24s-.89-.6-.83-1.2S217.29,93,218,92.45Z" transform="translate(-79.69 -48.82)"/><path class="cls-6" d="M128.27,125.7a5.4,5.4,0,0,1-5.39,0A20.69,20.69,0,0,1,128.27,125.7Z" transform="translate(-79.69 -48.82)"/><path class="cls-3" d="M135.31,110.54c.94-.08,1.89,1.24,2.83,0,2.34.67,4.75,0,7.11.35-1.89.56-3.83.18-5.75.21a1.45,1.45,0,0,0-1.61,1.17l-.81.35a6.89,6.89,0,0,0-1.78-1.71Z" transform="translate(-79.69 -48.82)"/><path class="cls-6" d="M106.17,111.27l.35-.4c.38,1.9.07,3.81.17,5.72a4,4,0,0,0,.27,2l-.3.35c-.64-.39-.46-1-.47-1.58C106.17,115.35,106.18,113.31,106.17,111.27Z" transform="translate(-79.69 -48.82)"/><path class="cls-5" d="M174.38,97.76l.31,0c2.91-1.27,6-.58,9-.71a1.1,1.1,0,0,1,1.24.76c-2.54-.64-5.13-.27-7.7-.31a2.65,2.65,0,0,0-1.78,1l-1-.08Z" transform="translate(-79.69 -48.82)"/><path class="cls-5" d="M207.24,97.54c-1.71-.48-2.33.19-2.15,1.91a28.85,28.85,0,0,1,0,3.48c0,.37.22.95-.29,1s-.81-.32-.84-.85c.76-.21.71-.81.7-1.4,0-1,0-2,0-3,0-.59-.32-1.44.54-1.64C205.89,97,206.74,96.62,207.24,97.54Z" transform="translate(-79.69 -48.82)"/><path class="cls-5" d="M184.54,59.52c1.08.1,1.15.87,1,1.65a1.26,1.26,0,0,1-1.37,1.1c-.78-.08-1.68-.24-1.56-1.41l.76,0c.33.26.56.84,1.12.46s.43-.76.06-1.17Z" transform="translate(-79.69 -48.82)"/><path class="cls-5" d="M172.17,55.5c.56-.43,1,.32,1.59.12l1.94,1.92c0,.39.06.77.1,1.16l-.1.09Z" transform="translate(-79.69 -48.82)"/><path class="cls-6" d="M206,111.16l-.22,0c0-.2,0-.41,0-.61,3.42-.24,6.84-.14,10.27-.06-2,.59-4,.13-5.92.28-1.22.1-2.46-.23-3.66.21Z" transform="translate(-79.69 -48.82)"/><path class="cls-5" d="M183.86,53.82c1,.15,1.13.9,1,1.69a1.39,1.39,0,0,1-1.44,1.06,1.27,1.27,0,0,1-1.44-1.38l.73,0c.32.29.59.83,1.13.43s.37-.78,0-1.18Z" transform="translate(-79.69 -48.82)"/><path class="cls-6" d="M193.42,110.53l0,.46-9.81-.08-.4-.31C186.58,110.33,190,110.46,193.42,110.53Z" transform="translate(-79.69 -48.82)"/><path class="cls-6" d="M103,110.58c-2.71.53-5.44.09-8.15.23-.7,0-1.39,0-2.09,0,0-.1,0-.2,0-.3C96.19,110.45,99.61,110.35,103,110.58Z" transform="translate(-79.69 -48.82)"/><path class="cls-4" d="M150.14,107.7l.07-.44c2.88.83,5.8.39,8.71.28l.12.13a.72.72,0,0,1-.66.4h-7.19C150.82,108,150.39,108.09,150.14,107.7Z" transform="translate(-79.69 -48.82)"/><path class="cls-6" d="M149.52,111c0-.17,0-.33-.05-.5a68.78,68.78,0,0,1,8.85.08c0,.15,0,.3,0,.45l-.75-.12a48.92,48.92,0,0,0-7.06-.07Z" transform="translate(-79.69 -48.82)"/><path class="cls-5" d="M207.31,107.43a74.34,74.34,0,0,1,0-9.44A29,29,0,0,1,207.31,107.43Z" transform="translate(-79.69 -48.82)"/><path class="cls-6" d="M88.41,116.88c.55,0,.88-.3.85-.89a21.39,21.39,0,0,0-.15-4.38.64.64,0,0,1,.16-.75l.36.37c0,1.74,0,3.49,0,5.23,0,.39.23.94-.18,1.12S88.71,117.19,88.41,116.88Z" transform="translate(-79.69 -48.82)"/><path class="cls-6" d="M145.25,110.88c-2.36-.32-4.77.32-7.11-.35l8.49,0-.74.33Z" transform="translate(-79.69 -48.82)"/><path class="cls-6" d="M174.31,110.88l-.72-.31a42.65,42.65,0,0,1,7.41.05c0,.15,0,.3,0,.45l-.75-.12a18.14,18.14,0,0,0-4.23-.07Z" transform="translate(-79.69 -48.82)"/><path class="cls-3" d="M89.63,111.23l-.36-.37c1.08-1.11,2.35-.09,3.5-.32,0,.1,0,.2,0,.3h0l-1.23.37Z" transform="translate(-79.69 -48.82)"/><path class="cls-4" d="M182.67,55.23l-.73,0c-.07-.45-.15-.9-.23-1.35a.71.71,0,0,0,.72-.4l1.43.38c0,.22,0,.44,0,.66C183.24,54.43,182.8,54.6,182.67,55.23Z" transform="translate(-79.69 -48.82)"/><path class="cls-6" d="M223.58,113.31c.62,2.49,0,5,.34,7.53a.29.29,0,0,1,0,.27h-.45C223.49,118.5,223.54,115.91,223.58,113.31Z" transform="translate(-79.69 -48.82)"/><path class="cls-4" d="M183.36,60.9l-.76,0c-.07-.45-.15-.9-.22-1.35a.81.81,0,0,0,.75-.32l1.41.33v.67A.92.92,0,0,0,183.36,60.9Z" transform="translate(-79.69 -48.82)"/><path class="cls-6" d="M221,113.7l.45-.07c0,2.49.07,5,.11,7.46h-.48C221,118.63,221,116.17,221,113.7Z" transform="translate(-79.69 -48.82)"/><path class="cls-5" d="M176.73,54a.76.76,0,0,1,.79-.46,3.32,3.32,0,0,1,1.37,1.57l0,.87-.12.13Z" transform="translate(-79.69 -48.82)"/><path class="cls-6" d="M243.15,120l-.45.24-.46.1-.35-.35c0-.56,0-1.12,0-1.69.15-.15.3-.31.46-.46a1,1,0,0,1,.3,0l.45.45Z" transform="translate(-79.69 -48.82)"/><path class="cls-5" d="M151.19,108.08h7.19A19.32,19.32,0,0,1,151.19,108.08Z" transform="translate(-79.69 -48.82)"/><path class="cls-6" d="M135.31,110.54v.36l-.67,0H129l-.39-.35Z" transform="translate(-79.69 -48.82)"/><path class="cls-5" d="M204.17,107.18a3.91,3.91,0,0,0,3.1.39c-.16,1.25-1.14.73-1.77.74S204,108.22,204.17,107.18Z" transform="translate(-79.69 -48.82)"/><path class="cls-5" d="M177.86,60.83a6.29,6.29,0,0,1-2.16-2l.1-.09,1.15.09.88.88Z" transform="translate(-79.69 -48.82)"/><path class="cls-3" d="M221.05,121.1h2.85C222.94,122.12,222,122.18,221.05,121.1Z" transform="translate(-79.69 -48.82)"/><path class="cls-5" d="M180.3,52.43c.28-.43.29-1.13,1.07-1-.2.64.31,1.07.49,1.6l-.33.31A1.34,1.34,0,0,1,180.3,52.43Z" transform="translate(-79.69 -48.82)"/><path class="cls-3" d="M132.52,70.1c-.46.74-1.16.34-1.76.37A1.31,1.31,0,0,1,132.52,70.1Z" transform="translate(-79.69 -48.82)"/><path class="cls-5" d="M215.88,144.51c.3.66.44,1.29-.26,1.8C215.44,145.67,215.15,145,215.88,144.51Z" transform="translate(-79.69 -48.82)"/><path class="cls-4" d="M177.86,60.83l0-1.16,1.24,1.24-.81.3Z" transform="translate(-79.69 -48.82)"/><path class="cls-6" d="M203,111.05c0-.17,0-.33,0-.49a4.56,4.56,0,0,1,2.11,0c0,.2,0,.41,0,.61a.76.76,0,0,0-.21,0l-.54-.22-.71-.07Z" transform="translate(-79.69 -48.82)"/><path class="cls-5" d="M201,104a1.23,1.23,0,0,1,1.07,1.05C201.23,105.15,200.88,104.79,201,104Z" transform="translate(-79.69 -48.82)"/><path class="cls-5" d="M179.61,56.14c.46,0,.87.22.65.74-.13.29-.52.14-.74-.07s-.48-.5-.72-.75l.12-.13Z" transform="translate(-79.69 -48.82)"/><path class="cls-5" d="M183.13,59.19a.81.81,0,0,1-.75.32c-.24-.18-.47-.43-.17-.66S182.91,58.81,183.13,59.19Z" transform="translate(-79.69 -48.82)"/><path class="cls-4" d="M177,58.79l-1.15-.09c0-.39-.07-.77-.1-1.16C176.12,58,176.54,58.37,177,58.79Z" transform="translate(-79.69 -48.82)"/><path class="cls-5" d="M199.42,102.35a1,1,0,0,1,.85.93C199.45,103.47,199.41,102.93,199.42,102.35Z" transform="translate(-79.69 -48.82)"/><path class="cls-5" d="M203.46,106.46a.66.66,0,0,1,.71.72C203.59,107.28,203.35,107.05,203.46,106.46Z" transform="translate(-79.69 -48.82)"/><path class="cls-5" d="M193.27,101.9a1.51,1.51,0,0,1-.69-1.39A1.38,1.38,0,0,1,193.27,101.9Z" transform="translate(-79.69 -48.82)"/><path class="cls-3" d="M253.63,118.28c0-.54,0-1.08,0-1.62A1.22,1.22,0,0,1,253.63,118.28Z" transform="translate(-79.69 -48.82)"/><path class="cls-5" d="M194,103.31a1.57,1.57,0,0,1-.71-1.39A1.43,1.43,0,0,1,194,103.31Z" transform="translate(-79.69 -48.82)"/><path class="cls-3" d="M205.1,111.2c0-.2,0-.41,0-.61h.72c0,.2,0,.41,0,.61h-.67Z" transform="translate(-79.69 -48.82)"/><path class="cls-5" d="M137.78,103.76a.73.73,0,0,1-.71-.7l.23-.25.72.71Z" transform="translate(-79.69 -48.82)"/><path class="cls-5" d="M200.26,103.28c.45,0,.71.24.72.71C200.4,104.09,200.16,103.86,200.26,103.28Z" transform="translate(-79.69 -48.82)"/><path class="cls-5" d="M138.49,104.47a.74.74,0,0,1-.71-.71l.24-.24c.23.24.47.47.71.71Z" transform="translate(-79.69 -48.82)"/><path class="cls-5" d="M202.05,105a.68.68,0,0,1,.71.71C202.17,105.87,201.93,105.63,202.05,105Z" transform="translate(-79.69 -48.82)"/><path class="cls-5" d="M202.75,105.75c.44,0,.71.25.71.72C202.88,106.57,202.64,106.34,202.75,105.75Z" transform="translate(-79.69 -48.82)"/><path class="cls-5" d="M182.43,53.44a.71.71,0,0,1-.72.4l-.18-.55.33-.31Z" transform="translate(-79.69 -48.82)"/><path class="cls-5" d="M202.2,101.38a.7.7,0,0,1-.74-.74A.74.74,0,0,1,202.2,101.38Z" transform="translate(-79.69 -48.82)"/><path class="cls-4" d="M179.61,56.14l-.69-.21,0-.87C179.26,55.33,179.68,55.57,179.61,56.14Z" transform="translate(-79.69 -48.82)"/><path class="cls-5" d="M200.18,99.47a.82.82,0,0,1-.7-.7A.61.61,0,0,1,200.18,99.47Z" transform="translate(-79.69 -48.82)"/><path class="cls-5" d="M203.37,102.66a.83.83,0,0,1-.71-.71A.62.62,0,0,1,203.37,102.66Z" transform="translate(-79.69 -48.82)"/><path class="cls-5" d="M199,98.2a.7.7,0,0,1-.74-.75A.73.73,0,0,1,199,98.2Z" transform="translate(-79.69 -48.82)"/><path class="cls-5" d="M200.79,100c-.37,0-.54-.17-.61-.5C200.53,99.45,200.76,99.59,200.79,100Z" transform="translate(-79.69 -48.82)"/><path class="cls-5" d="M202.66,102c-.33-.07-.53-.24-.5-.6C202.54,101.37,202.68,101.6,202.66,102Z" transform="translate(-79.69 -48.82)"/><path class="cls-5" d="M199.47,98.76a.53.53,0,0,1-.5-.6C199.35,98.18,199.49,98.41,199.47,98.76Z" transform="translate(-79.69 -48.82)"/><path class="cls-5" d="M204,103.13c-.38.08-.54-.14-.62-.47C203.71,102.64,204,102.74,204,103.13Z" transform="translate(-79.69 -48.82)"/><path class="cls-5" d="M174.63,97.39l-.38-.29Z" transform="translate(-79.69 -48.82)"/><path class="cls-5" d="M185.25,98.12a.34.34,0,0,1-.37-.37Z" transform="translate(-79.69 -48.82)"/><path class="cls-5" d="M185.54,98.67l-.31-.57A.46.46,0,0,1,185.54,98.67Z" transform="translate(-79.69 -48.82)"/><path class="cls-5" d="M201.14,100.31c-.27,0-.4-.11-.38-.38A.36.36,0,0,1,201.14,100.31Z" transform="translate(-79.69 -48.82)"/><path class="cls-5" d="M201.49,100.67c-.27,0-.4-.11-.38-.39A.35.35,0,0,1,201.49,100.67Z" transform="translate(-79.69 -48.82)"/><path class="cls-4" d="M134.63,110.88l.67,0a6.89,6.89,0,0,1,1.78,1.71v7.08a3.4,3.4,0,0,1-3.18,1.45c-2.75-.09-5.49,0-8.24,0-.47,0-1,.08-1.34-.29-1.78-1.75-3.55-3.52-5.32-5.28l.18-.42h3.1c.73,0,1.31-.25,1.31-1.09s-.6-1.07-1.32-1.09h-.18c-4.84-.35-4.84-.35-4.84,4.51a15.68,15.68,0,0,1,0,1.94c-.07.61.44,1.48-.68,1.71s-1-.88-1.32-1.42c0-2.82,0-5.65,0-8.48,2.41,0,4.82-.06,7.23-.06,1,0,2.12-.27,2.61.93a4.56,4.56,0,0,1,0,3.92c-1.1,2.07-1.18,2,.82,3.38.54.76.88.81.88-.25,0-1.85,0-3.7,0-5.55.33-1.23.74-2.38,2.2-2.69h1.7A6.72,6.72,0,0,0,134.63,110.88Zm-.06,2.81h0c-.71-.92-4.89-1.14-5.5-.29a1.61,1.61,0,0,0-.19.49c-1.11,4.12.5,6,4.71,5.41a1.84,1.84,0,0,0,.67-.17c.24-.14.61-.37.61-.56C134.88,116.94,135.48,115.26,134.57,113.69Z" transform="translate(-79.69 -48.82)"/><path class="cls-4" d="M157.56,111l.75.12a2.6,2.6,0,0,1,1.16,2.54,2.79,2.79,0,0,0,.21,1.86c0,.15,0,.29,0,.44l0,.09-.35.39-.36.34c-.6.15-1.36.33-.69,1.1s1.2,1.79,2.33,2c.3,0,.27-.46.26-.74a14.28,14.28,0,0,0-.15-3.33v-.62c.54-4,.54-4,4.66-4,1.18,0,2.36,0,3.53,0a1.72,1.72,0,0,1,1.88,1.88c0,2,0,4,0,6a1.92,1.92,0,0,1-2.12,2.07c-3,0-6,0-9,0a1.52,1.52,0,0,1-1-.25c-1.84-1.78-3.64-3.6-5.77-5.73,1.51,0,2.55,0,3.59,0,.66,0,1.18-.26,1.22-1s-.49-1.12-1.23-1.16h-.36c-4.8-.27-4.8-.27-4.8,4.55,0,.65.05,1.3,0,1.94s.41,1.69-.91,1.66-.81-1-.82-1.57c0-2.83,0-5.66,0-8.48l1-.16A23.53,23.53,0,0,0,157.56,111Zm8.17,2c-3.16,0-3.16,0-3.16,2.84,0,3.54,0,3.54,3,3.54,3.39,0,3.39,0,3.39-3.08C169,112.93,169,112.93,165.73,112.93Z" transform="translate(-79.69 -48.82)"/><path class="cls-4" d="M174.31,110.88H176a8.9,8.9,0,0,0,4.23.07l.75.12a5.68,5.68,0,0,1,.74.73,1.5,1.5,0,0,1,.17,1.92c-.51.59-1.15.18-1.69-.23-.16-.12-.42-.1-.64-.15h0c-1.53-.85-3.16-.34-4.75-.31-.57,0-.87.59-.75,1.18a1,1,0,0,0,1.14.89c1.46,0,2.93,0,4.4,0,2,0,2.52.65,2.51,3.11,0,2.29-.48,2.84-2.54,2.87-1.59,0-3.17,0-4.76,0h-.18c-1.4.09-2.39-.53-2.37-2s1.37-.58,2.06-.9h0c-.12.59.17.78.71.72v0c1.44.73,3,.31,4.44.23a.93.93,0,0,0,.87-1.12,1,1,0,0,0-1.11-.91c-1.23,0-2.47,0-3.69,0s-2.74.16-3.07-1.62C171.92,112.8,172.38,111.74,174.31,110.88Z" transform="translate(-79.69 -48.82)"/><path class="cls-4" d="M89.63,111.23h1.92l0,9.88a3.23,3.23,0,0,1-3.1-1.21c-1.54-1.69-3.22-3.27-4.85-4.88-.28-.29-.57-.7-1-.52s-.34.7-.34,1.09c0,1.35,0,2.71,0,4.06,0,.67.19,1.5-1,1.46s-.82-.8-.83-1.4c0-2.29,0-4.58,0-6.88,0-.57-.36-1.4.56-1.63a1.88,1.88,0,0,1,1.94.52c1.44,1.48,2.91,2.92,4.37,4.37.33.32.61.74,1.13.8.3.31.47,1,1,.7s.17-.73.18-1.12C89.63,114.72,89.62,113,89.63,111.23Z" transform="translate(-79.69 -48.82)"/><path class="cls-4" d="M92.78,111.19l8.48-.06c.69,0,1.51-.17,1.48,1s-.81.82-1.41.83c-1.83,0-3.65,0-5.48,0-.71,0-1.27.07-1.29,1s.43,1.22,1.29,1.19c1.3,0,2.6,0,3.89,0,.71,0,1.12.26,1.1,1s-.59.76-1.13.77H95.82c-.75,0-1.24.24-1.26,1.11s.39,1.28,1.27,1.27c1.89,0,3.77,0,5.66,0,.59,0,1.21-.07,1.25.82s-.6,1-1.28,1h-7.6c-.41,0-.84,0-1.13-.35v-9.21a.6.6,0,0,0,0-.35Z" transform="translate(-79.69 -48.82)"/><path class="cls-4" d="M206,111.16l.48-.14,8.12.11c.69,0,1.5-.15,1.46,1s-.83.81-1.42.81c-1.83,0-3.65,0-5.48,0-.85,0-1.33.18-1.3,1.17s.54,1,1.27,1c1.24,0,2.48,0,3.71,0,.68,0,1.15.14,1.12,1s-.5.84-1.08.84c-1.18,0-2.36,0-3.54,0-.86,0-1.69,0-1.66,1.28s.81,1.11,1.61,1.1h5.47c.68,0,1.33,0,1.3,1s-.63.84-1.22.84c-2.42,0-4.84,0-7.25,0-1.15,0-1.54-.33-1.52-1.5C206.13,116.81,206.05,114,206,111.16Z" transform="translate(-79.69 -48.82)"/><path class="cls-4" d="M145.25,110.88h.64a3.75,3.75,0,0,1,2,5.06,2.18,2.18,0,0,1-2.12,1c-1.47,0-2.94,0-4.4,0-1.15,0-1.63.44-1.5,1.57a2.88,2.88,0,0,1,0,.88c-.14.6.45,1.48-.65,1.72-1.25.28-1-.85-1.31-1.4,0-2.48,0-5,0-7.43a1.45,1.45,0,0,1,1.61-1.17C141.42,111.06,143.36,111.44,145.25,110.88Zm-2.34,4.24h0c.76,0,1.53,0,2.29,0a1,1,0,0,0,1.06-1.14,1,1,0,0,0-1-1c-1.47,0-2.94,0-4.42,0-.68,0-.92.35-.92,1s.08,1.2.92,1.19S142.2,115.12,142.91,115.12Z" transform="translate(-79.69 -48.82)"/><path class="cls-4" d="M204.35,111l.54.22c0,2.82-.06,5.65-.1,8.47,0,.68.19,1.51-1,1.46s-.8-.83-.81-1.42c0-2.73.38-2.54-2.57-2.55h-1.06c-2.63,0-2.64,0-2.77,2.71,0,.68,0,1.31-1,1.27s-.8-.68-.81-1.26v-7.42c0-.6,0-1.19.85-1.21s.92.65,1,1.31c.11,2.6.11,2.6,2.7,2.6,3.66,0,3.66,0,3.7-4.08l.62-.17A.5.5,0,0,0,204.35,111Z" transform="translate(-79.69 -48.82)"/><path class="cls-4" d="M241.88,118.33c0,.57,0,1.13,0,1.69a3.29,3.29,0,0,1-2.83,1.11c-1.64-.08-3.3,0-4.95,0a1.87,1.87,0,0,1-2.12-2.18c0-1.94,0-3.89,0-5.83,0-1.21.56-1.92,1.79-1.94,2.06,0,4.12,0,6.19,0a2.49,2.49,0,0,1,1.94,1.07c0,.59-.07,1.19-.11,1.79-.4,0-.95.06-1.19-.16-1.68-1.55-3.71-.71-5.57-.88a1,1,0,0,0-1.24,1c-.05,1.47,0,2.94,0,4.41a.78.78,0,0,0,.64.76c1.78.22,3.65.7,5.3-.27A3.43,3.43,0,0,1,241.88,118.33Z" transform="translate(-79.69 -48.82)"/><path class="cls-4" d="M106.17,111.27c0,2,0,4.08,0,6.13,0,.56-.17,1.19.47,1.58,1.58.67,3.22.34,4.83.23.88-.06,1.07-1,1.08-1.79,0-1.64,0-3.29,0-4.93,0-.65-.09-1.36.91-1.34s.82.65.83,1.24v6.35a2.15,2.15,0,0,1-2.43,2.37c-1.76,0-3.53,0-5.29,0a2.81,2.81,0,0,1-2.46-1.42q0-4.24,0-8.48A4.59,4.59,0,0,1,106.17,111.27Z" transform="translate(-79.69 -48.82)"/><path class="cls-4" d="M183.57,110.91l9.81.08c.31,1.53-.25,2.22-1.85,1.94s-2.29.44-2.13,2.13a28.44,28.44,0,0,1,0,4.23c0,.7.5,1.78-.94,1.82s-1-1-1-1.73a38.16,38.16,0,0,1,0-4.41c.15-1.62-.39-2.3-2-2S183,112.65,183.57,110.91Z" transform="translate(-79.69 -48.82)"/><path class="cls-4" d="M223.45,121.1h-1.92c0-2.49-.07-5-.11-7.46-.47-1.38-1.6-.46-2.4-.68-.62-.16-1.53.26-1.51-.92s.88-.89,1.53-.89c2.36,0,4.72,0,7.08,0,.66,0,1.34-.06,1.34.93s-.77.79-1.38.88c-.83.13-1.76-.39-2.5.37C223.54,115.91,223.49,118.5,223.45,121.1Z" transform="translate(-79.69 -48.82)"/><path class="cls-1" d="M103.7,118.53l-7.4.11c-.38,0-.93.11-1-.49s.51-.52.9-.53c1.3,0,2.6-.05,3.89,0,1.07,0,1.29-.52,1.26-1.43s.06-1.71-1.19-1.7-2.35,0-3.53,0c-.47,0-1.26.31-1.3-.45s.77-.54,1.24-.55c2.35,0,4.71,0,7.07,0C103.69,115.14,103.7,116.83,103.7,118.53Z" transform="translate(-79.69 -48.82)"/><path class="cls-4" d="M228.8,116.15c0-1.35,0-2.7,0-4.05,0-.64.26-1,.94-.95s.81.37.81.92q0,4.05,0,8.1c0,.66-.27,1-1,.93s-.81-.35-.8-.9Z" transform="translate(-79.69 -48.82)"/><path class="cls-6" d="M92.73,111.55v9.21a1.65,1.65,0,0,1-1.21.34l0-9.88,1.23-.37a1,1,0,0,0,0,.34h0s-.12.07-.12.09A1.29,1.29,0,0,0,92.73,111.55Z" transform="translate(-79.69 -48.82)"/><path class="cls-1" d="M245.86,113.35l3.5.11c.53,0,1.25,0,1.29.61,0,.86-.77.44-1.19.47-.94.08-1.88,0-2.82,0s-1.07-.47-.78-1.23Z" transform="translate(-79.69 -48.82)"/><path class="cls-2" d="M205.13,111.22h.66v9.71h-.66Z" transform="translate(-79.69 -48.82)"/><path class="cls-1" d="M179.57,113.34c.18.68.44,1.36-.77,1.24-.93-.08-1.88,0-2.82,0-.44,0-1.13.12-1.13-.5s.72-.57,1.22-.6c1.16,0,2.33-.08,3.5-.11Z" transform="translate(-79.69 -48.82)"/><path class="cls-1" d="M120.54,113.46c.66.21,2.16-.41,2.14.49,0,1.19-1.5.42-2.33.6a3.57,3.57,0,0,1-1.22,0c-.43,0-1.18.45-1.16-.5s.73-.55,1.21-.59S120,113.46,120.54,113.46Z" transform="translate(-79.69 -48.82)"/><path class="cls-1" d="M154.66,113.46c.63.24,2.08-.49,2.06.59s-1.46.36-2.26.51a2.47,2.47,0,0,1-1.05,0c-.47-.13-1.36.57-1.34-.48,0-.87.87-.54,1.4-.6A9.19,9.19,0,0,1,154.66,113.46Z" transform="translate(-79.69 -48.82)"/><path class="cls-1" d="M174.33,118.26c.63-.59,4.57-1,5-.46.1.1.18.37.12.44s-.36.36-.53.34c-1.35-.09-2.62.62-4,.38v0c-.05-.42-.17-.78-.71-.72Z" transform="translate(-79.69 -48.82)"/><path class="cls-2" d="M137.89,112.26c0,2.48,0,4.95,0,7.43h-.83v-7.08Z" transform="translate(-79.69 -48.82)"/><path class="cls-6" d="M103.7,118.53c0-1.7,0-3.39,0-5.09.35-.7-.32-1.61.46-2.22q0,4.23,0,8.48C103.68,119.43,103.85,118.92,103.7,118.53Z" transform="translate(-79.69 -48.82)"/><path class="cls-2" d="M115.27,111.2c0,2.83,0,5.66,0,8.48a.57.57,0,0,1-.51-.6c0-2.45,0-4.89,0-7.34A.53.53,0,0,1,115.27,111.2Z" transform="translate(-79.69 -48.82)"/><path class="cls-6" d="M126.76,113.57c0,1.85,0,3.7,0,5.55,0,1.06-.34,1-.88.25a.68.68,0,0,0,.42-.9c0-.13,0-.26,0-.39V116.7l0-.38c0-1,.09-2,.14-3a1.19,1.19,0,0,1,.07-.29C126.87,113.11,126.68,113.4,126.76,113.57Z" transform="translate(-79.69 -48.82)"/><path class="cls-2" d="M159.64,115.91c0-.15,0-.29,0-.44.29-.88-.12-1.89.39-2.9.77.85.13,1.82.61,2.54,0,.21,0,.41,0,.62Z" transform="translate(-79.69 -48.82)"/><path class="cls-1" d="M126.33,116.32l0,.38a1.26,1.26,0,0,0,0,1.38c0,.13,0,.26,0,.39a1,1,0,0,1-1.26-.86A1.2,1.2,0,0,1,126.33,116.32Z" transform="translate(-79.69 -48.82)"/><path class="cls-6" d="M241.81,114c0-.6.08-1.2.11-1.79l1.1.36.06,3.23h-.42a.29.29,0,0,1,0-.27C242.75,114.8,242.81,114.12,241.81,114Z" transform="translate(-79.69 -48.82)"/><path class="cls-1" d="M206.77,65.23A5.91,5.91,0,0,1,204,62.86a.69.69,0,0,1,.07-1c.41-.32.61.09.83.35A11.3,11.3,0,0,1,206.77,65.23Z" transform="translate(-79.69 -48.82)"/><path class="cls-1" d="M183.5,147.52c-1.25-1.52-.94-3-.91-4.17.08-2.51-1.24-3.89-3-5.17a4.42,4.42,0,0,1-2.08-4.66c.06-.32-.12-.79.32-.89.21,0,.55.19.73.39q2.3,2.43,4.55,4.91a1.36,1.36,0,0,1,.37.76C183.51,141.49,183.5,144.28,183.5,147.52Z" transform="translate(-79.69 -48.82)"/><path class="cls-5" d="M190.84,101.69c.42,1.1,1.52,1.82.95,2.79-.28.47-1.77.49-2,0C189.33,103.53,190.32,102.76,190.84,101.69Z" transform="translate(-79.69 -48.82)"/><path class="cls-2" d="M138.73,104.23c-.24-.24-.48-.47-.71-.71l-.72-.71-2-2.18c0,2.23,0,4,0,5.69,0,.73.06,1.41-1,1.41s-1.09-.6-1.09-1.37c0-2.42,0-4.83,0-7.25,0-.58-.33-1.42.58-1.63a2,2,0,0,1,2.1.56c.84.91,1.78,1.73,2.61,2.65.62.67,1.1.71,1.73,0,.88-.95,1.84-1.82,2.74-2.76a1.93,1.93,0,0,1,2.13-.43c.74.24.45,1,.45,1.55,0,2.41,0,4.83,0,7.25,0,.74,0,1.4-1.07,1.41s-1-.71-1-1.42c0-1.76,0-3.51,0-5.27l-.43-.32c-.89,1-1.76,2-2.66,2.93C139.92,104.11,139.51,104.74,138.73,104.23Z" transform="translate(-79.69 -48.82)"/><path class="cls-2" d="M158.92,107.54c-2.91.11-5.83.55-8.71-.28-1.09-2.79-.53-5.66-.37-8.5a1.54,1.54,0,0,1,1.55-1.25c2.23-.07,4.47-.06,6.7,0,.69,0,1.14.56,1.63,1,.07.72.38,1.48-.27,2.11a6.66,6.66,0,0,1-1.91-.62c-1.65-.89-3.51-.48-5.29-.24-.43.06-.47.6-.53,1-.66,4.45.22,5.39,4.67,5,.58-.06,1.23,0,1.25-.88v.06c.72-.08,1.64-.6,2.09.17C160.27,106,159.55,106.82,158.92,107.54Z" transform="translate(-79.69 -48.82)"/><path class="cls-2" d="M160.79,97.73c2-.54,2.1-.48,2.11,1.58,0,2.29,0,2.29,2.26,2.29H166c2.94,0,3,0,3.09-2.89,0-.7.05-1.28,1-1.28s1,.59,1,1.29c0,2.6,0,5.19,0,7.79,0,.63,0,1.16-.89,1.19s-1.07-.39-1.11-1.18c-.19-3-.21-3-3.19-3h-.53c-2.9,0-2.46-.25-2.52,2.4,0,.74.36,1.78-1,1.74s-1-1.11-1-1.83c-.07-2.47-.08-5-.12-7.42C160.77,98.2,160.78,98,160.79,97.73Z" transform="translate(-79.69 -48.82)"/><path class="cls-2" d="M148,107.64l-1,0-.46-.29a63.57,63.57,0,0,1,0-9.66l.44-.24h1C148.18,100.87,148.14,104.25,148,107.64Z" transform="translate(-79.69 -48.82)"/><path class="cls-6" d="M148,107.64c.11-3.39.15-6.77,0-10.16.48,0,.53.4.53.75,0,2.88,0,5.75,0,8.63C148.53,107.21,148.5,107.58,148,107.64Z" transform="translate(-79.69 -48.82)"/><path class="cls-6" d="M147,97.47l-.44.24C146.63,97.45,146.79,97.41,147,97.47Z" transform="translate(-79.69 -48.82)"/><path class="cls-6" d="M146.55,107.37l.46.29C146.76,107.72,146.59,107.65,146.55,107.37Z" transform="translate(-79.69 -48.82)"/><path class="cls-3" d="M242.66,115.79h.42a3.2,3.2,0,0,0,3.09,1.17,19.46,19.46,0,0,1,3.89,0,1.1,1.1,0,0,1,1.14,1.28,1.08,1.08,0,0,1-1.21,1c-1.24,0-2.48,0-3.72,0-.63,0-1.18-.21-1.1-1a13.25,13.25,0,0,0,4.61.36c.29,0,.61-.07.66-.43a.56.56,0,0,0-.2-.42c-.56-.46-4.44-.07-5.07.5l-2.08.07-.45-.45c.73-.31,1.09-.67.29-1.34C242.75,116.4,242.75,116.05,242.66,115.79Z" transform="translate(-79.69 -48.82)"/><path class="cls-5" d="M183.14,105.18c-1.68,1-3.47.5-5.21.31-.49,0-.59-.64-.66-1.13-.6-4.3,1.08-5.81,5.36-4.8a.85.85,0,0,1,.61.57l-.23.21c-1.1-.58-2.29-.29-3.44-.37s-1.75.44-1.73,1.75c0,4.17-.4,3.38,3.38,3.45A17,17,0,0,0,183,105Z" transform="translate(-79.69 -48.82)"/><path class="cls-4" d="M174.41,98.41l1,.08a57.63,57.63,0,0,0-.06,8.1l-1,.39A79,79,0,0,1,174.41,98.41Z" transform="translate(-79.69 -48.82)"/><path class="cls-1" d="M158,100.92l2.08,0,.12,3.2c-.82.36-2-.59-2.56.75v-.06a11.32,11.32,0,0,1-3.28.37c-1.58.14-2.2-.39-2.14-2.06.1-3,0-2.9,3-3A7.42,7.42,0,0,1,158,100.92Z" transform="translate(-79.69 -48.82)"/><path class="cls-2" d="M174.41,98.41a79,79,0,0,0,0,8.57l-.12.64c-1.55.37-2.06-.23-2-1.81.12-2.21,0-4.44,0-6.66,0-1.87.15-2,2-1.39Z" transform="translate(-79.69 -48.82)"/><path class="cls-5" d="M158,100.92a7.42,7.42,0,0,0-2.79-.77c-3,.09-2.88,0-3,3-.06,1.67.56,2.2,2.14,2.06a11.32,11.32,0,0,0,3.28-.37c0,.85-.67.82-1.25.88-4.45.41-5.33-.53-4.67-5,.06-.42.1-1,.53-1,1.78-.24,3.64-.65,5.29.24a6.66,6.66,0,0,0,1.91.62C158.93,100.56,158.36,100.32,158,100.92Z" transform="translate(-79.69 -48.82)"/><path class="cls-5" d="M160.19,104.14l-.12-3.2A3.12,3.12,0,0,1,160.19,104.14Z" transform="translate(-79.69 -48.82)"/><path class="cls-1" d="M203.24,148.43c.55,0,.77.25.69.66a.61.61,0,0,1-1.21-.07C202.69,148.57,203,148.48,203.24,148.43Z" transform="translate(-79.69 -48.82)"/><path class="cls-1" d="M183.36,60.9a.92.92,0,0,1,1.18-.71c.37.41.41.84-.06,1.17S183.69,61.16,183.36,60.9Z" transform="translate(-79.69 -48.82)"/><path class="cls-1" d="M182.67,55.23c.13-.63.57-.8,1.15-.75.35.4.45.84,0,1.18S183,55.52,182.67,55.23Z" transform="translate(-79.69 -48.82)"/><path class="cls-3" d="M157.56,111a23.53,23.53,0,0,1-7.06-.07A48.92,48.92,0,0,1,157.56,111Z" transform="translate(-79.69 -48.82)"/><path class="cls-3" d="M180.24,111a8.9,8.9,0,0,1-4.23-.07A18.14,18.14,0,0,1,180.24,111Z" transform="translate(-79.69 -48.82)"/><path class="cls-3" d="M242.62,115.52c-.1-.21-.17-.58-.31-.61-2.38-.4-4.53-2-7.11-1.36-.47.11-.73.31-.76.79a2.17,2.17,0,0,0,0,.36c.2,1.28-.69,3.26.52,3.71,1.42.52,3.37.89,4.93-.59a2.12,2.12,0,0,1,2.47.05c-.16.15-.31.31-.46.46a3.43,3.43,0,0,0-2.14.5c-1.65,1-3.52.49-5.3.27a.78.78,0,0,1-.64-.76c0-1.47,0-2.94,0-4.41a1,1,0,0,1,1.24-1c1.86.17,3.89-.67,5.57.88.24.22.79.11,1.19.16C242.81,114.12,242.75,114.8,242.62,115.52Z" transform="translate(-79.69 -48.82)"/><path class="cls-3" d="M134.63,110.88a6.72,6.72,0,0,1-4,0Z" transform="translate(-79.69 -48.82)"/><path class="cls-3" d="M204.35,111a.5.5,0,0,1-.71-.07Z" transform="translate(-79.69 -48.82)"/><path class="cls-3" d="M134.57,113.69c.91,1.57.31,3.25.3,4.88,0,.19-.37.42-.61.56a1.84,1.84,0,0,1-.67.17c-4.21.57-5.82-1.29-4.71-5.41a1.61,1.61,0,0,1,.19-.49c.61-.85,4.79-.63,5.5.29a16.46,16.46,0,0,0-4-.23,1,1,0,0,0-1.22,1c-.65,3.63-.07,4.34,3.56,4.23h.35c.9.06,1.28-.36,1.27-1.25C134.48,116.15,134.54,114.92,134.57,113.69Z" transform="translate(-79.69 -48.82)"/><path class="cls-3" d="M165.73,112.93c3.26,0,3.26,0,3.26,3.3,0,3.08,0,3.08-3.39,3.08-3,0-3,0-3-3.54C162.57,112.93,162.57,112.93,165.73,112.93Zm-.06,5.71c2.62,0,2.62,0,2.62-2.34,0-2.84,0-2.84-2.51-2.84s-2.52,0-2.52,2.47C163.26,118.64,163.26,118.64,165.67,118.64Z" transform="translate(-79.69 -48.82)"/><path class="cls-3" d="M159.64,115.91l1-.18a14.28,14.28,0,0,1,.15,3.33c0,.28,0,.79-.26.74-1.13-.18-1.67-1.21-2.33-2s.09-1,.69-1.1l.29.3c-.47.87.22,1,.8,1.39a3.88,3.88,0,0,0-.12-2l-.26-.39Z" transform="translate(-79.69 -48.82)"/><path class="cls-3" d="M158.91,116.73l.36-.34.28.28-.35.36Z" transform="translate(-79.69 -48.82)"/><path class="cls-3" d="M159.27,116.39l.35-.39c.09.13.18.26.26.39l-.33.28Z" transform="translate(-79.69 -48.82)"/><path class="cls-3" d="M174.29,118.26c.54-.06.66.3.71.72C174.46,119,174.17,118.85,174.29,118.26Z" transform="translate(-79.69 -48.82)"/><path class="cls-3" d="M92.73,111.55a1.29,1.29,0,0,1-.08-.26s.08-.06.12-.09A.6.6,0,0,1,92.73,111.55Z" transform="translate(-79.69 -48.82)"/><path class="cls-3" d="M142.91,115.12c-.71,0-1.42,0-2.12,0s-.92-.54-.92-1.19.24-1,.92-1c1.48,0,3,0,4.42,0a1,1,0,0,1,1,1,1,1,0,0,1-1.06,1.14c-.76,0-1.53,0-2.29,0Zm.09-1.75c-.67.49-2.22-.53-2.23.66s1.54.48,2.37.49,2.2.51,2.19-.52S143.88,113.7,143,113.37Z" transform="translate(-79.69 -48.82)"/><path class="cls-3" d="M126.37,118.08a1.26,1.26,0,0,1,0-1.38C126.36,117.16,126.36,117.62,126.37,118.08Z" transform="translate(-79.69 -48.82)"/><path class="cls-1" d="M245.17,118.27c.63-.57,4.51-1,5.07-.5a.56.56,0,0,1,.2.42c-.05.36-.37.43-.66.43a13.25,13.25,0,0,1-4.61-.36Z" transform="translate(-79.69 -48.82)"/><path class="cls-1" d="M159.55,116.67l.33-.28a3.88,3.88,0,0,1,.12,2c-.58-.37-1.27-.52-.8-1.39Z" transform="translate(-79.69 -48.82)"/></svg>